<svg xmlns="http://www.w3.org/2000/svg" xmlns:xlink="http://www.w3.org/1999/xlink" width="167" height="167" viewBox="0 0 167 167">
  <defs>
    <clipPath id="clip-path">
      <rect id="Rectangle_9394" data-name="Rectangle 9394" width="167" height="167" transform="translate(-18890 -23888)"/>
    </clipPath>
    <clipPath id="clip-path-2">
      <path id="inside" d="M1129.375,1604.751l25.349-43.905a14.906,14.906,0,0,0,0-14.909l-25.349-43.905a14.952,14.952,0,0,0-12.911-7.455h-50.7a14.953,14.953,0,0,0-12.911,7.455l-25.349,43.905a14.906,14.906,0,0,0,0,14.909l25.349,43.905a14.953,14.953,0,0,0,12.911,7.455h50.7A14.953,14.953,0,0,0,1129.375,1604.751Z" transform="translate(-1025.508 -1494.577)" fill="none"/>
    </clipPath>
    <linearGradient id="linear-gradient" x1="0.5" x2="0.5" y2="1" gradientUnits="objectBoundingBox">
      <stop offset="0" stop-color="#00c2ff"/>
      <stop offset="0.31" stop-color="#0093e2"/>
      <stop offset="0.779" stop-color="#0053b9"/>
      <stop offset="1" stop-color="#003aaa"/>
    </linearGradient>
    <linearGradient id="linear-gradient-2" x1="-11.821" y1="-6.493" x2="-11.821" y2="-5.493" gradientUnits="objectBoundingBox">
      <stop offset="0" stop-color="#636363"/>
      <stop offset="1" stop-color="#fff"/>
    </linearGradient>
    <linearGradient id="linear-gradient-3" x1="-9.499" y1="-5.577" x2="-9.499" y2="-4.577" xlink:href="#linear-gradient-2"/>
    <linearGradient id="linear-gradient-4" x1="-7.181" y1="-9.054" x2="-7.181" y2="-8.054" xlink:href="#linear-gradient-2"/>
    <linearGradient id="linear-gradient-5" x1="-4.862" y1="-7.421" x2="-4.862" y2="-6.421" xlink:href="#linear-gradient-2"/>
    <linearGradient id="linear-gradient-6" x1="-2.544" y1="-6.03" x2="-2.544" y2="-5.03" xlink:href="#linear-gradient-2"/>
    <linearGradient id="linear-gradient-7" x1="-0.225" y1="-7.759" x2="-0.225" y2="-6.759" xlink:href="#linear-gradient-2"/>
    <linearGradient id="linear-gradient-8" x1="2.093" y1="-6.844" x2="2.093" y2="-5.844" xlink:href="#linear-gradient-2"/>
    <linearGradient id="linear-gradient-9" x1="4.412" y1="-9.144" x2="4.412" y2="-8.144" xlink:href="#linear-gradient-2"/>
    <linearGradient id="linear-gradient-10" x1="6.731" y1="-7.459" x2="6.731" y2="-6.459" xlink:href="#linear-gradient-2"/>
    <linearGradient id="linear-gradient-11" x1="9.05" y1="-6.844" x2="9.05" y2="-5.844" xlink:href="#linear-gradient-2"/>
    <linearGradient id="linear-gradient-12" x1="11.368" y1="-9.785" x2="11.368" y2="-8.785" xlink:href="#linear-gradient-2"/>
    <linearGradient id="linear-gradient-13" x1="-15.812" y1="1" x2="-15.812" gradientUnits="objectBoundingBox">
      <stop offset="0" stop-color="#0d3a65"/>
      <stop offset="1" stop-color="#0a2e62"/>
    </linearGradient>
    <linearGradient id="linear-gradient-14" x1="-13.106" y1="1" x2="-13.106" gradientUnits="objectBoundingBox">
      <stop offset="0" stop-color="#0d3a65"/>
      <stop offset="1" stop-color="#0a2f63"/>
    </linearGradient>
    <linearGradient id="linear-gradient-15" x1="-10.399" y1="1" x2="-10.399" gradientUnits="objectBoundingBox">
      <stop offset="0" stop-color="#0d3a65"/>
      <stop offset="1" stop-color="#0c2f62"/>
    </linearGradient>
    <linearGradient id="linear-gradient-16" x1="-7.692" y1="1" x2="-7.692" gradientUnits="objectBoundingBox">
      <stop offset="0" stop-color="#0d3a64"/>
      <stop offset="1" stop-color="#0c3063"/>
    </linearGradient>
    <linearGradient id="linear-gradient-17" x1="-4.985" y1="1" x2="-4.985" gradientUnits="objectBoundingBox">
      <stop offset="0" stop-color="#0d3a65"/>
      <stop offset="1" stop-color="#0c2f64"/>
    </linearGradient>
    <linearGradient id="linear-gradient-18" x1="-2.278" y1="1" x2="-2.278" gradientUnits="objectBoundingBox">
      <stop offset="0" stop-color="#0d3a64"/>
      <stop offset="1" stop-color="#0e3368"/>
    </linearGradient>
    <linearGradient id="linear-gradient-19" x1="0.428" y1="1" x2="0.428" gradientUnits="objectBoundingBox">
      <stop offset="0" stop-color="#0d3a65"/>
      <stop offset="1" stop-color="#0d3368"/>
    </linearGradient>
    <linearGradient id="linear-gradient-20" x1="3.133" y1="1" x2="3.133" gradientUnits="objectBoundingBox">
      <stop offset="0" stop-color="#0d3a65"/>
      <stop offset="1" stop-color="#0d3467"/>
    </linearGradient>
    <linearGradient id="linear-gradient-21" x1="5.841" y1="1" x2="5.841" gradientUnits="objectBoundingBox">
      <stop offset="0" stop-color="#0d3a64"/>
      <stop offset="1" stop-color="#0c3367"/>
    </linearGradient>
    <linearGradient id="linear-gradient-22" x1="8.548" y1="1" x2="8.548" gradientUnits="objectBoundingBox">
      <stop offset="0" stop-color="#0d3a65"/>
      <stop offset="1" stop-color="#0c2f66"/>
    </linearGradient>
    <linearGradient id="linear-gradient-23" x1="11.252" y1="1" x2="11.252" gradientUnits="objectBoundingBox">
      <stop offset="0" stop-color="#0d3a65"/>
      <stop offset="1" stop-color="#0a2e61"/>
    </linearGradient>
    <linearGradient id="linear-gradient-24" x1="13.958" y1="1" x2="13.958" gradientUnits="objectBoundingBox">
      <stop offset="0" stop-color="#0d3a65"/>
      <stop offset="1" stop-color="#092b5e"/>
    </linearGradient>
    <linearGradient id="linear-gradient-25" x1="16.664" y1="1" x2="16.664" gradientUnits="objectBoundingBox">
      <stop offset="0" stop-color="#0d3a65"/>
      <stop offset="1" stop-color="#09285b"/>
    </linearGradient>
  </defs>
  <g id="Mask_Group_49" data-name="Mask Group 49" transform="translate(18890 23888)" clip-path="url(#clip-path)">
    <g id="Group_51668" data-name="Group 51668" transform="translate(-18880 -23870)">
      <g id="Group_51498" data-name="Group 51498" transform="translate(0 0)">
        <path id="Path_64832" data-name="Path 64832" d="M1121.054,1598.478l27.112-46.959a15.942,15.942,0,0,0,0-15.946l-27.112-46.959a15.994,15.994,0,0,0-13.809-7.974H1053.02a16,16,0,0,0-13.81,7.974l-27.112,46.959a15.943,15.943,0,0,0,0,15.946l27.112,46.959a15.993,15.993,0,0,0,13.81,7.973h54.224A15.992,15.992,0,0,0,1121.054,1598.478Z" transform="translate(-1006.951 -1477.941)" fill="#070707"/>
        <path id="Path_64833" data-name="Path 64833" d="M1115.565,1594.339l28.275-48.974a16.626,16.626,0,0,0,0-16.63l-28.275-48.974a16.68,16.68,0,0,0-14.4-8.316h-56.551a16.679,16.679,0,0,0-14.4,8.316l-28.275,48.974a16.626,16.626,0,0,0,0,16.63l28.275,48.974a16.679,16.679,0,0,0,14.4,8.316h56.551A16.68,16.68,0,0,0,1115.565,1594.339Z" transform="translate(-999.706 -1471.446)" fill="#fff"/>
        <path id="Path_64834" data-name="Path 64834" d="M1121.054,1598.478l27.112-46.959a15.942,15.942,0,0,0,0-15.946l-27.112-46.959a15.994,15.994,0,0,0-13.809-7.974H1053.02a16,16,0,0,0-13.81,7.974l-27.112,46.959a15.943,15.943,0,0,0,0,15.946l27.112,46.959a15.993,15.993,0,0,0,13.81,7.973h54.224A15.992,15.992,0,0,0,1121.054,1598.478Z" transform="translate(-1006.951 -1477.941)" fill="#070707"/>
      </g>
      <g id="investors" transform="translate(1.976 0.927)">
        <path id="Path_64835" data-name="Path 64835" d="M1137.924,1507.447a28.524,28.524,0,0,0-7-13.731h0a29.681,29.681,0,0,0-11.207-7.8,26.9,26.9,0,0,0-9.7-1.8,23.341,23.341,0,0,0-5.449.6h-.044a19.459,19.459,0,0,0-7.633,1.377,12.324,12.324,0,0,0-4.847,3.619c-2.9,3.608-3.172,8.23-3,11.068-.507-.434-1.045-.875-1.612-1.316a38.415,38.415,0,0,0-9.04-5.279,32.148,32.148,0,0,0-12.177-2.422c-.89,0-1.79.038-2.69.114a22.391,22.391,0,0,0-5.6-8.7,30.312,30.312,0,0,0-6.319-4.678,46.042,46.042,0,0,0-9.048-3.809,1.918,1.918,0,0,0-1.777,3.321l.005,0a39.277,39.277,0,0,1,5.462,5.616c2.042,2.592,4.326,6.31,4.172,9.842a57.641,57.641,0,0,0-6.883,3.807,35.322,35.322,0,0,0-9.311,8.346,12.852,12.852,0,0,0-5.119,2.6,25.573,25.573,0,0,1-3.137.206c-4.1,0-7.144-1.207-9.059-3.586-2.074-2.576-2.571-6.171-2.623-8.733a25.571,25.571,0,0,1,.441-5.274,1.918,1.918,0,0,0-3.462-1.5,33.66,33.66,0,0,0-2.954,5.336,23.488,23.488,0,0,0-1.55,4.963,17.469,17.469,0,0,0,.486,8.678c2.768,8.579,11.783,13.259,15.6,14.9a14.025,14.025,0,0,0,.511,4.049,15.216,15.216,0,0,0,1.891,4.173,16.409,16.409,0,0,0,2.146,2.667,10.777,10.777,0,0,0,1.093.968c.358.593,1.187,2.272,1.652,3.215a23.6,23.6,0,0,0,1.235,2.366c.2.4.8,1.923,1.356,3.407a25.079,25.079,0,0,1-4,5.425,5.08,5.08,0,0,0-1.585,3.012,22.922,22.922,0,0,0-.461,3.651c-.157,2.591-.094,5.586-.047,7.772.026,1.207.047,2.249.023,2.776a18.7,18.7,0,0,0,.635,5.268,14.188,14.188,0,0,0,.906,2.534,5.916,5.916,0,0,0,1.565,2.112c.265.212.918.905,1.55,1.576a62.276,62.276,0,0,0,4.788,4.695,17.656,17.656,0,0,0,6.348,3.8,1.9,1.9,0,0,0,.574.088h.069a5.866,5.866,0,0,0,1.371-.232,3.194,3.194,0,0,0,2.372-2.22,6.715,6.715,0,0,0,.254-1.727,16.536,16.536,0,0,0,.578-8.051l-.006-.031a8.093,8.093,0,0,0-5.076-6.02c-.223-.179-.584-.478-.964-.823a7.363,7.363,0,0,1-1.229-1.319,4.9,4.9,0,0,1,.043-1.5c.152-.409.566-1.552.942-2.862a18.188,18.188,0,0,0,.7-3.443,7.756,7.756,0,0,0,2.046-1.339,7.536,7.536,0,0,0,4.47-.739,9,9,0,0,0,5.077-4.742,8.2,8.2,0,0,0,.379-1.084,6.883,6.883,0,0,1,1.106.316,25.869,25.869,0,0,0-1.624,3.514c-1.95,5.305-.574,8.232,1.006,9.776a12.092,12.092,0,0,0,1.238,1.421,7.336,7.336,0,0,0,3.168,1.953c1.149.9,4.956,3.881,8.8,6.853,2.693,2.082,4.877,3.753,6.494,4.967.968.728,1.745,1.3,2.307,1.7a5.733,5.733,0,0,0,1.635.973,13.582,13.582,0,0,0,3.378.4,7.91,7.91,0,0,0,3.019-.483,32.746,32.746,0,0,1,4.587-.969c2.012-.355,3.877-.645,3.9-.647a1.918,1.918,0,0,0,1.261-3.02l-.07-.1-.007-.009-5.6-8.486a1.917,1.917,0,0,0-1.6-.865,1.9,1.9,0,0,0-.868.21,10.414,10.414,0,0,1-3.937,1.024,3.439,3.439,0,0,1-1.08-.153,8.2,8.2,0,0,1-2-1.29c-.927-.719-2-1.654-3.1-2.7-1.037-.988-2.038-2.021-2.819-2.91-.509-.578-.83-.988-1.029-1.263a8.889,8.889,0,0,1,.9-1.272,3.9,3.9,0,0,1,2.9-1.627c.082,0,.166,0,.25.01.74.264,3.267,1.152,6.321,2.051,4.876,1.436,8.582,2.166,11.016,2.169a18.211,18.211,0,0,0,.98,2.543,16.843,16.843,0,0,0,2.392,3.719,14.91,14.91,0,0,0,4.155,3.4l.012.007a8.091,8.091,0,0,1,4.211,7.718c-.043.306-.229,1.687-.363,3.183-.287,3.214-.106,4.267.307,4.97a23.7,23.7,0,0,1,.992,3.205c.381,1.407.7,2.7.7,2.713a1.918,1.918,0,0,0,3.069,1.037l6.368-5.143a1.916,1.916,0,0,0,.695-1.229l.071-.512a1.917,1.917,0,0,0,1.165-1,4.526,4.526,0,0,0,.367-1.1c-.075,1.071-.15,2.43-.192,3.7-.135,4.114.12,4.99.393,5.536a23.364,23.364,0,0,0,2.191,3.183,16.842,16.842,0,0,0,1.5,1.673,5.972,5.972,0,0,0,.845.683,2.687,2.687,0,0,0,1.486.483,2.208,2.208,0,0,0,.3-.02,4.512,4.512,0,0,0,2.134-1.165c.6-.481,1.322-1.113,2.079-1.828a29.3,29.3,0,0,0,3.784-4.21,4.443,4.443,0,0,0,.419-.809,2.349,2.349,0,0,0,.078-1.564c-.195-.623-.558-1.575-.825-2.257a7.319,7.319,0,0,0,.71-3.928,25.527,25.527,0,0,0-.866-3.475c-.12-.4-.281-.937-.335-1.175.016-.293.065-1.019.117-1.781.141-2.1.378-5.62.528-8.642.084-1.685.131-3.033.141-4.007.018-1.744-.049-2.425-.482-3.023l-.087-.119a12.722,12.722,0,0,1-.969-1.49,2.514,2.514,0,0,1-.393-1.108c.107-.5.832-2.629,1.416-4.344,1.681-4.939,2.4-7.169,2.475-8.193.073-.947.11-3.41.043-5.736-.04-1.382-.111-2.588-.21-3.584a11.446,11.446,0,0,0-.573-2.92c-.075-.19-.226-.81-.36-1.358-.058-.24-.123-.5-.193-.786.113-4.536,2.682-10.057,2.709-10.113s.038-.085.055-.129c.056-.147.1-.266.136-.378A28.528,28.528,0,0,0,1137.924,1507.447Zm-44.9-3.777a3.915,3.915,0,0,1,2.546-2.285,8.925,8.925,0,0,0,2.455.362,7.385,7.385,0,0,0,4.637-1.616,10.759,10.759,0,0,0,2.689-3.23,17.056,17.056,0,0,0,1.422-3.363,8.337,8.337,0,0,1,2.224-.29c2.409,0,6.2.948,10.573,5.464a16.094,16.094,0,0,1,4.02,7.161,17.312,17.312,0,0,1,.642,6.2,3.987,3.987,0,0,1-1.519,3.009,22.577,22.577,0,0,0-5.75-2.646c-5.636-1.7-17.566-4.929-22.357-5.906-.4-.518-1.059-1.316-1.951-2.28A1.922,1.922,0,0,0,1093.024,1503.67Zm25.833,80.437c-.016.147-.034.328-.052.536,0-.1-.011-.207-.022-.311-.005-.047-.012-.095-.02-.142a17.408,17.408,0,0,0-1.042-2.923c-.238-.591-.469-1.151-.631-1.541.127-.71.34-1.984.5-3.336a27.024,27.024,0,0,0,.225-3.056,4.457,4.457,0,0,0-.756-3.011c-.087-.1-.215-.277-.378-.507q.169.114.326.222a9.782,9.782,0,0,1,1.458,1.155,57.932,57.932,0,0,1,.385,6.316C1118.941,1580.688,1118.925,1583.486,1118.856,1584.107Z" transform="translate(-1006.437 -1474.604)" fill="#fff"/>
        <path id="Path_64836" data-name="Path 64836" d="M1121.054,1598.478l27.112-46.959a15.942,15.942,0,0,0,0-15.946l-27.112-46.959a15.994,15.994,0,0,0-13.809-7.974H1053.02a16,16,0,0,0-13.81,7.974l-27.112,46.959a15.943,15.943,0,0,0,0,15.946l27.112,46.959a15.993,15.993,0,0,0,13.81,7.973h54.224A15.992,15.992,0,0,0,1121.054,1598.478Z" transform="translate(-1008.927 -1478.868)" fill="#070707"/>
        <g id="Group_51503" data-name="Group 51503" transform="translate(5.598 5.863)">
          <g id="Group_51502" data-name="Group 51502" clip-path="url(#clip-path-2)">
            <rect id="Rectangle_9253" data-name="Rectangle 9253" width="163.59" height="143.333" transform="translate(-20.562 -14.348)" fill="url(#linear-gradient)"/>
            <g id="Group_51499" data-name="Group 51499" transform="translate(5.496 58.905)" opacity="0.35">
              <rect id="Rectangle_9254" data-name="Rectangle 9254" width="10.178" height="61.459" transform="translate(118.015 8.557)" fill="url(#linear-gradient-2)" style="mix-blend-mode: overlay;isolation: isolate"/>
              <rect id="Rectangle_9255" data-name="Rectangle 9255" width="10.181" height="70.016" transform="translate(106.212)" fill="url(#linear-gradient-3)" style="mix-blend-mode: overlay;isolation: isolate"/>
              <rect id="Rectangle_9256" data-name="Rectangle 9256" width="10.18" height="45.8" transform="translate(94.413 24.216)" fill="url(#linear-gradient-4)" style="mix-blend-mode: overlay;isolation: isolate"/>
              <rect id="Rectangle_9257" data-name="Rectangle 9257" width="10.18" height="54.687" transform="translate(82.61 15.329)" fill="url(#linear-gradient-5)" style="mix-blend-mode: overlay;isolation: isolate"/>
              <rect id="Rectangle_9258" data-name="Rectangle 9258" width="10.181" height="65.505" transform="translate(70.809 4.511)" fill="url(#linear-gradient-6)" style="mix-blend-mode: overlay;isolation: isolate"/>
              <rect id="Rectangle_9259" data-name="Rectangle 9259" width="10.181" height="52.576" transform="translate(59.006 17.44)" fill="url(#linear-gradient-7)" style="mix-blend-mode: overlay;isolation: isolate"/>
              <rect id="Rectangle_9260" data-name="Rectangle 9260" width="10.18" height="58.709" transform="translate(47.206 11.307)" fill="url(#linear-gradient-8)" style="mix-blend-mode: overlay;isolation: isolate"/>
              <rect id="Rectangle_9261" data-name="Rectangle 9261" width="10.179" height="45.394" transform="translate(35.405 24.622)" fill="url(#linear-gradient-9)" style="mix-blend-mode: overlay;isolation: isolate"/>
              <rect id="Rectangle_9262" data-name="Rectangle 9262" width="10.179" height="54.438" transform="translate(23.603 15.578)" fill="url(#linear-gradient-10)" style="mix-blend-mode: overlay;isolation: isolate"/>
              <rect id="Rectangle_9263" data-name="Rectangle 9263" width="10.179" height="58.709" transform="translate(11.802 11.307)" fill="url(#linear-gradient-11)" style="mix-blend-mode: overlay;isolation: isolate"/>
              <rect id="Rectangle_9264" data-name="Rectangle 9264" width="10.179" height="42.699" transform="translate(0 27.316)" fill="url(#linear-gradient-12)" style="mix-blend-mode: overlay;isolation: isolate"/>
            </g>
            <g id="Group_51500" data-name="Group 51500" transform="translate(-41.711 25.67)">
              <path id="Path_64837" data-name="Path 64837" d="M1106.025,1647.154l-21.208,9.948h0a1.751,1.751,0,0,0-2.748-.173h0l-19.239-7.372h0a1.76,1.76,0,1,0-3.364-.474l-18.841,5.54h0a1.756,1.756,0,1,0-3.011,1.782h0l-19.709,19.608h0a1.752,1.752,0,0,0-2.718.98h0l-18.715-1.7a1.757,1.757,0,1,0-3.36.839l-19.266,12.612a1.75,1.75,0,0,0-2.621.051l-19.194-11.507a1.757,1.757,0,1,0-3.045.406h0l-19.765,20.587a1.754,1.754,0,0,0-2.432.452l-19.027-8.915a1.757,1.757,0,1,0-3.335.149h0l-21.008,12.223v.677l21.3-12.394a1.754,1.754,0,0,0,2.793-.124l19.027,8.915a1.757,1.757,0,1,0,3.1-.577h0l19.766-20.587a1.752,1.752,0,0,0,2.322-.311l19.194,11.506h0a1.757,1.757,0,1,0,3.245-.064l19.266-12.611h0a1.753,1.753,0,0,0,2.985-.745h0l18.715,1.7a1.757,1.757,0,1,0,3.184-1.148l19.71-19.608a1.742,1.742,0,0,0,1.02.33,1.76,1.76,0,0,0,1.757-1.758,1.81,1.81,0,0,0-.013-.208l18.841-5.54h0a1.752,1.752,0,0,0,2.882.406l19.239,7.372a1.757,1.757,0,1,0,3.378.68,1.731,1.731,0,0,0-.066-.47l20.959-9.832ZM906.07,1690.525a1.172,1.172,0,1,1,1.172-1.171A1.173,1.173,0,0,1,906.07,1690.525Zm22.163,10.384a1.172,1.172,0,1,1,1.172-1.172A1.173,1.173,0,0,1,928.233,1700.909Zm22.163-23.085a1.172,1.172,0,1,1,1.172-1.171A1.173,1.173,0,0,1,950.4,1677.824Zm22.163,13.287a1.172,1.172,0,1,1,1.172-1.172A1.173,1.173,0,0,1,972.559,1691.111Zm22.163-14.507a1.172,1.172,0,1,1,1.172-1.172A1.173,1.173,0,0,1,994.722,1676.6Zm22.163,2.01a1.171,1.171,0,1,1,1.172-1.172A1.173,1.173,0,0,1,1016.885,1678.614Zm22.163-22.049a1.172,1.172,0,1,1,1.172-1.172A1.173,1.173,0,0,1,1039.048,1656.565Zm22.163-6.517a1.171,1.171,0,1,1,1.172-1.171A1.173,1.173,0,0,1,1061.211,1650.047Zm22.163,9.227a1.172,1.172,0,1,1,1.172-1.172A1.173,1.173,0,0,1,1083.374,1659.275Z" transform="translate(-883.419 -1628.01)" fill="#696969" opacity="0.75" style="mix-blend-mode: overlay;isolation: isolate"/>
              <path id="Path_64838" data-name="Path 64838" d="M1106.025,1582.024l-21.228,10.465a1.755,1.755,0,0,0-3.141.663h0l-18.7-.8a1.757,1.757,0,1,0-3.057,1.381h0l-19.987,24.729h0a1.749,1.749,0,0,0-2.274.489h0l-19.071-9.629h0a1.758,1.758,0,1,0-3.436-.52,1.74,1.74,0,0,0,.157.722L996,1622.478h0a1.753,1.753,0,0,0-2.942.656l-18.739-2.862a1.757,1.757,0,1,0-3.226.989l-19.622,18.152h0a1.751,1.751,0,0,0-2.666.655h0l-18.82-5.1h0c.006-.056.009-.113.009-.171a1.757,1.757,0,1,0-3.348.742h0l-19.313,13.314h0a1.751,1.751,0,0,0-2.666.173h0l-21.245-10.887v.658l20.975,10.749a1.758,1.758,0,1,0,3.266-.213h0l19.313-13.314a1.753,1.753,0,0,0,2.853-.489l18.82,5.1h0c-.005.056-.008.113-.008.171a1.757,1.757,0,1,0,3.227-.96l19.622-18.152a1.752,1.752,0,0,0,2.739-.839h0l18.739,2.862a1.757,1.757,0,1,0,3.355-.752v0l19.289-12.951a1.751,1.751,0,0,0,2.686-.167l19.071,9.629h0a1.758,1.758,0,1,0,2.994-.642h0l19.987-24.729h0a1.755,1.755,0,0,0,2.581-1.164h0l18.7.8a1.757,1.757,0,1,0,3.425-.722l20.968-10.337Zm-201.516,67.251,0,.006Zm1.561,1.976a1.172,1.172,0,1,1,1.172-1.172A1.173,1.173,0,0,1,906.07,1651.251Zm22.163-15.28a1.172,1.172,0,1,1,1.172-1.172A1.173,1.173,0,0,1,928.233,1635.972Zm1.7-.722-.005.021Zm18.774,5.085-.005.02Zm1.692,1.642a1.172,1.172,0,1,1,1.172-1.172A1.173,1.173,0,0,1,950.4,1641.976Zm1.284-2.367.008.009Zm19.586-18.121.008.009Zm1.292-.015a1.172,1.172,0,1,1,1.172-1.172A1.173,1.173,0,0,1,972.559,1621.473Zm1.736-.911c0,.013,0,.026-.006.038C974.291,1620.588,974.293,1620.575,974.295,1620.562Zm18.7,2.825c0,.012,0,.025-.006.037C992.988,1623.412,992.99,1623.4,992.992,1623.387Zm1.73,1.47a1.172,1.172,0,1,1,1.172-1.172A1.173,1.173,0,0,1,994.722,1624.857Zm22.163-14.88a1.172,1.172,0,1,1,1.172-1.172A1.173,1.173,0,0,1,1016.885,1609.977Zm1.572-.39-.008.017Zm19.028,9.609c0,.005-.005.011-.008.016S1037.481,1619.2,1037.484,1619.2Zm1.563,1.97a1.171,1.171,0,1,1,1.172-1.171A1.173,1.173,0,0,1,1039.048,1621.166Zm22.163-27.421a1.172,1.172,0,1,1,1.172-1.172A1.173,1.173,0,0,1,1061.211,1593.745Zm1.746-.977v0Zm18.671.555v0Zm1.746,1.365a1.172,1.172,0,1,1,1.172-1.172A1.173,1.173,0,0,1,1083.374,1594.689Zm1.571-1.955.007.014Z" transform="translate(-883.419 -1582.024)" fill="#fff" style="mix-blend-mode: overlay;isolation: isolate"/>
              <path id="Path_64839" data-name="Path 64839" d="M1106.025,1582.024l-21.228,10.465a1.755,1.755,0,0,0-3.141.663h0l-18.7-.8a1.757,1.757,0,1,0-3.057,1.381h0l-19.987,24.729h0a1.749,1.749,0,0,0-2.274.489h0l-19.071-9.629h0a1.758,1.758,0,1,0-3.436-.52,1.74,1.74,0,0,0,.157.722L996,1622.478h0a1.753,1.753,0,0,0-2.942.656l-18.739-2.862a1.757,1.757,0,1,0-3.226.989l-19.622,18.152h0a1.751,1.751,0,0,0-2.666.655h0l-18.82-5.1h0c.006-.056.009-.113.009-.171a1.757,1.757,0,1,0-3.348.742h0l-19.313,13.314h0a1.751,1.751,0,0,0-2.666.173h0l-21.245-10.887v.658l20.975,10.749a1.758,1.758,0,1,0,3.266-.213h0l19.313-13.314a1.753,1.753,0,0,0,2.853-.489l18.82,5.1h0c-.005.056-.008.113-.008.171a1.757,1.757,0,1,0,3.227-.96l19.622-18.152a1.752,1.752,0,0,0,2.739-.839h0l18.739,2.862a1.757,1.757,0,1,0,3.355-.752v0l19.289-12.951a1.751,1.751,0,0,0,2.686-.167l19.071,9.629h0a1.758,1.758,0,1,0,2.994-.642h0l19.987-24.729h0a1.755,1.755,0,0,0,2.581-1.164h0l18.7.8a1.757,1.757,0,1,0,3.425-.722l20.968-10.337Zm-201.516,67.251,0,.006Zm1.561,1.976a1.172,1.172,0,1,1,1.172-1.172A1.173,1.173,0,0,1,906.07,1651.251Zm22.163-15.28a1.172,1.172,0,1,1,1.172-1.172A1.173,1.173,0,0,1,928.233,1635.972Zm1.7-.722-.005.021Zm18.774,5.085-.005.02Zm1.692,1.642a1.172,1.172,0,1,1,1.172-1.172A1.173,1.173,0,0,1,950.4,1641.976Zm1.284-2.367.008.009Zm19.586-18.121.008.009Zm1.292-.015a1.172,1.172,0,1,1,1.172-1.172A1.173,1.173,0,0,1,972.559,1621.473Zm1.736-.911c0,.013,0,.026-.006.038C974.291,1620.588,974.293,1620.575,974.295,1620.562Zm18.7,2.825c0,.012,0,.025-.006.037C992.988,1623.412,992.99,1623.4,992.992,1623.387Zm1.73,1.47a1.172,1.172,0,1,1,1.172-1.172A1.173,1.173,0,0,1,994.722,1624.857Zm22.163-14.88a1.172,1.172,0,1,1,1.172-1.172A1.173,1.173,0,0,1,1016.885,1609.977Zm1.572-.39-.008.017Zm19.028,9.609c0,.005-.005.011-.008.016S1037.481,1619.2,1037.484,1619.2Zm1.563,1.97a1.171,1.171,0,1,1,1.172-1.171A1.173,1.173,0,0,1,1039.048,1621.166Zm22.163-27.421a1.172,1.172,0,1,1,1.172-1.172A1.173,1.173,0,0,1,1061.211,1593.745Zm1.746-.977v0Zm18.671.555v0Zm1.746,1.365a1.172,1.172,0,1,1,1.172-1.172A1.173,1.173,0,0,1,1083.374,1594.689Zm1.571-1.955.007.014Z" transform="translate(-883.419 -1582.024)" fill="#adadad" style="mix-blend-mode: overlay;isolation: isolate"/>
              <path id="Path_64840" data-name="Path 64840" d="M1106.025,1701.537l-20.895-3.135a1.757,1.757,0,1,0-3.329.811l-19.36,14.029a1.754,1.754,0,0,0-2.968,1.007l-18.7.5c0,.005,0,.011,0,.017a1.757,1.757,0,0,0-3.484.322,1.742,1.742,0,0,0,.1.586l-19.138,10.647a1.755,1.755,0,0,0-2.982.4l-18.8-4.648c0-.044.006-.087.006-.131a1.757,1.757,0,1,0-3.435.523h0l-19.074,9.663h0a1.753,1.753,0,0,0-3.017.33l-18.808-4.805c0-.048.007-.1.007-.145a1.757,1.757,0,1,0-3.35.738h0L929.494,1741.5v0a1.754,1.754,0,0,0-2.815.4l-18.876-6.257a1.74,1.74,0,0,0,.023-.266,1.758,1.758,0,1,0-3.479.352h0l-20.929,8.1v.628l21.143-8.181a1.754,1.754,0,0,0,3.061-.076v0l18.876,6.257a1.78,1.78,0,0,0-.022.267,1.757,1.757,0,1,0,3.35-.739h0l19.309-13.259a1.753,1.753,0,0,0,2.866-.509h0l18.808,4.805h0c0,.048-.008.1-.008.145a1.757,1.757,0,1,0,3.435-.523h0l19.074-9.663a1.754,1.754,0,0,0,3.022-.344h0l18.8,4.649c0,.043-.007.087-.007.131a1.757,1.757,0,1,0,3.413-.585l19.137-10.647a1.755,1.755,0,0,0,3.109-.851l18.7-.5s0-.011,0-.016a1.756,1.756,0,1,0,3.3-1.1l19.36-14.029a1.754,1.754,0,0,0,2.9-.707l20.982,3.147ZM906.07,1736.549a1.172,1.172,0,1,1,1.172-1.172A1.173,1.173,0,0,1,906.07,1736.549Zm22.163,7.346a1.172,1.172,0,1,1,1.172-1.172A1.173,1.173,0,0,1,928.233,1743.9Zm22.163-15.218a1.172,1.172,0,1,1,1.172-1.172A1.173,1.173,0,0,1,950.4,1728.677Zm22.163,5.662a1.172,1.172,0,1,1,1.172-1.172A1.172,1.172,0,0,1,972.559,1734.339Zm22.163-11.227a1.172,1.172,0,1,1,1.172-1.172A1.173,1.173,0,0,1,994.722,1723.112Zm22.163,5.479a1.172,1.172,0,1,1,1.172-1.172A1.173,1.173,0,0,1,1016.885,1728.591Zm22.163-12.33a1.172,1.172,0,1,1,1.172-1.172A1.173,1.173,0,0,1,1039.048,1716.262Zm22.163-.594a1.172,1.172,0,1,1,1.172-1.172A1.173,1.173,0,0,1,1061.211,1715.667Zm22.163-16.061a1.172,1.172,0,1,1,1.172-1.171A1.173,1.173,0,0,1,1083.374,1699.607Z" transform="translate(-883.419 -1663.021)" fill="#fff" opacity="0.5" style="mix-blend-mode: overlay;isolation: isolate"/>
            </g>
            <g id="Group_51501" data-name="Group 51501" transform="translate(21.432 89.575)" opacity="0.6">
              <rect id="Rectangle_9265" data-name="Rectangle 9265" width="5.18" height="28.741" transform="translate(84.128 10.605)" fill="url(#linear-gradient-13)"/>
              <rect id="Rectangle_9266" data-name="Rectangle 9266" width="5.18" height="32.92" transform="translate(77.117 6.426)" fill="url(#linear-gradient-14)"/>
              <rect id="Rectangle_9267" data-name="Rectangle 9267" width="5.18" height="28.741" transform="translate(70.106 10.605)" fill="url(#linear-gradient-15)"/>
              <rect id="Rectangle_9268" data-name="Rectangle 9268" width="5.18" height="25.97" transform="translate(63.095 13.376)" fill="url(#linear-gradient-16)"/>
              <rect id="Rectangle_9269" data-name="Rectangle 9269" width="5.18" height="38.37" transform="translate(56.085 0.976)" fill="url(#linear-gradient-17)"/>
              <rect id="Rectangle_9270" data-name="Rectangle 9270" width="5.18" height="30.852" transform="translate(49.074 8.494)" fill="url(#linear-gradient-18)"/>
              <rect id="Rectangle_9271" data-name="Rectangle 9271" width="5.183" height="34.269" transform="translate(42.063 5.077)" fill="url(#linear-gradient-19)"/>
              <rect id="Rectangle_9272" data-name="Rectangle 9272" width="5.183" height="24.408" transform="translate(35.052 14.938)" fill="url(#linear-gradient-20)"/>
              <rect id="Rectangle_9273" data-name="Rectangle 9273" width="5.18" height="29.013" transform="translate(28.043 10.334)" fill="url(#linear-gradient-21)"/>
              <rect id="Rectangle_9274" data-name="Rectangle 9274" width="5.18" height="35.371" transform="translate(21.032 3.975)" fill="url(#linear-gradient-22)"/>
              <rect id="Rectangle_9275" data-name="Rectangle 9275" width="5.182" height="33.223" transform="translate(14.022 6.123)" fill="url(#linear-gradient-23)"/>
              <rect id="Rectangle_9276" data-name="Rectangle 9276" width="5.182" height="39.346" transform="translate(7.011)" fill="url(#linear-gradient-24)"/>
              <rect id="Rectangle_9277" data-name="Rectangle 9277" width="5.182" height="36.83" transform="translate(0 2.516)" fill="url(#linear-gradient-25)"/>
            </g>
          </g>
        </g>
        <g id="Group_51504" data-name="Group 51504" transform="translate(1.917 1.918)">
          <path id="Path_43212" data-name="Path 43212" d="M1494.657,1523.3" transform="translate(-1353.256 -1510.923)" fill="#567a9b"/>
          <path id="Path_43217" data-name="Path 43217" d="M1130.469,1605.472c-.174-.014-.812-.446-2.051-1.994a21.911,21.911,0,0,1-1.92-2.765c-.406-.812-.058-7.556.159-9.53.186-1.674.011-12.246-.5-13.983-.148-.5-.84-1.461-5.112-3.985-2.349-1.388-4.634-2.565-4.655-2.576l-1.19-.6.713,1.129c.164.26,4.012,6.349,4.927,7.447.111.133.44.839.018,4.328-.232,1.924-.581,3.737-.586,3.755l-.021.11.043.1c.658,1.56,1.668,4.05,1.753,4.515a1.977,1.977,0,0,1-.116.947l-1.182-.131-.335,2.414-5.8,4.69a43.4,43.4,0,0,0-1.8-5.969c-.3-.5-.048-3.889.355-6.74a10.323,10.323,0,0,0-.362-3.714,10.13,10.13,0,0,0-5.029-6.268,12.325,12.325,0,0,1-5.351-6.569,16.79,16.79,0,0,1-1.01-4.218l-.031-.43-.42.1a7.981,7.981,0,0,1-1.778.162c-5.526,0-16.723-3.126-16.836-3.158l-.024-.006-.024,0a5.283,5.283,0,0,0-.741-.053,6.18,6.18,0,0,0-4.7,2.514,11.006,11.006,0,0,0-1.556,2.473l-.009.02-.006.02c-.086.29,0,.763,1.187,2.216a42.539,42.539,0,0,0,2.995,3.218c2.157,2.114,5,4.554,6.524,5.061a5.7,5.7,0,0,0,1.8.27,12.269,12.269,0,0,0,4.673-1.129l5.223,7.916a75.93,75.93,0,0,0-8.448,1.68,5.851,5.851,0,0,1-2.13.3,11.436,11.436,0,0,1-2.713-.3c-.832-.353-11.714-8.787-18.839-14.379l-.077-.058-.1-.014c-1.865-.274-3.524-2.677-3.541-2.7l-.024-.035-.031-.029c-3.96-3.623,1.861-12.22,1.92-12.3l.032-.048.031-.1-.58-.325.411-.047a9.563,9.563,0,0,0-4.921-1.618,6.146,6.146,0,0,0-.783.049l-.34.043.02.342a5.282,5.282,0,0,1-.47,2.157,6.791,6.791,0,0,1-3.9,3.528l-.031.012-.028.018a4.848,4.848,0,0,1-2.365.566,6.058,6.058,0,0,1-1.7-.251l-.266-.078-.148.232a5.637,5.637,0,0,1-3.085,1.977l-.369.086.1.366c.376,1.412-.969,5.442-1.519,6.876l-.009.025-.006.026a7.158,7.158,0,0,0-.063,2.67c.265,1.26,2.953,3.349,3.259,3.584l.058.045.071.019a5.52,5.52,0,0,1,1.667.876,5.76,5.76,0,0,1,2.2,3.529,14.291,14.291,0,0,1-.595,7.2l-.032.084.01.09a4.64,4.64,0,0,1-.174,1.4c-.138.551-1.145.732-1.561.76-3.691-1.068-7.692-5.315-10.088-7.858a23.464,23.464,0,0,0-1.786-1.795c-1.362-1.089-2.376-5.323-2.251-8.023.029-.6.006-1.633-.021-2.934-.045-2.147-.107-5.087.043-7.584.214-3.531.763-4.673,1.186-5.009,1.724-1.368,4.082-5.243,5.017-6.844l.1-.178-.1-.193a44.291,44.291,0,0,0-1.915-4.71c-.11-.144-.614-1.165-1.059-2.065-1.619-3.278-1.953-3.831-2.227-3.964a12.025,12.025,0,0,1-2.844-3.192,12.232,12.232,0,0,1-1.9-8.125l.036-.29-.272-.1a35.141,35.141,0,0,1-7.409-3.915c-4.2-2.926-6.944-6.318-8.158-10.084-1.517-4.7-.58-9.913,2.79-15.508a28.782,28.782,0,0,0-.213,3.926c.045,2.955.624,7.13,3.122,10.241,2.37,2.952,6.019,4.449,10.847,4.449a28.616,28.616,0,0,0,4.02-.3l.116-.016.085-.08a10.543,10.543,0,0,1,4.883-2.546l.031-.007.58-.254.058-.085c4.706-6.736,13.906-11.136,16.613-12.323l.18-.079.034-.193c1.263-7.1-5.879-14.55-8.976-17.4a33.725,33.725,0,0,1,12.736,7.377,19.9,19.9,0,0,1,5.472,9.241l.081.31.319-.039a17.449,17.449,0,0,1,2.128-.127,29.206,29.206,0,0,1,10.382,2.231,61.428,61.428,0,0,1,9.75,4.933,26.528,26.528,0,0,1,8.411,7.928s26.291,7.388,27.008,7.654c.549.277,1.089.58,1.606.909l.126.08.146-.031a5.563,5.563,0,0,0,3.747-2.513c1.692-2.732,1.1-6.994.3-10.088a18.378,18.378,0,0,0-4.591-8.179c-4.931-5.091-9.364-6.16-12.215-6.16a9.167,9.167,0,0,0-3.99.8l-.154.081-.036.17a14.8,14.8,0,0,1-1.465,3.781c-1.383,2.438-3.175,3.67-5.328,3.67a6.945,6.945,0,0,1-2.249-.406l-.08-.027-.083.01a6.138,6.138,0,0,0-4.179,2.744,19.417,19.417,0,0,1-.128-3.043,12.977,12.977,0,0,1,2.525-7.6c2.208-2.747,5.8-4.139,10.7-4.139h.328l.047-.012a18.647,18.647,0,0,1,4.172-.413c6.12,0,17.618,2.357,25.869,18.133a16.939,16.939,0,0,1,1.27,4.891,26.681,26.681,0,0,1-1.708,12.74c-.185.4-2.894,6.286-2.923,11.294v.047l.011.045c.093.368.178.714.252,1.018a15.594,15.594,0,0,0,.453,1.65c.758,1.925.717,9.54.588,11.226a70.312,70.312,0,0,1-2.359,7.636c-.731,2.151-1.363,4.009-1.491,4.625-.325,1.561,1.138,3.56,1.763,4.411l.058.078c.058.194.153,1.156-.083,5.8-.15,2.956-.379,6.366-.516,8.4-.088,1.307-.127,1.891-.127,2.013a8.675,8.675,0,0,0,.438,1.759,24.277,24.277,0,0,1,.791,3.13,5.827,5.827,0,0,1-.865,3.3l-.1.159.071.174c.008.019.782,1.928,1.085,2.889-.026.29-.848,1.5-2.982,3.6A19.02,19.02,0,0,1,1130.469,1605.472Z" transform="translate(-1013.883 -1483.341)" fill="#0b51ff"/>
          <path id="Path_43218" data-name="Path 43218" d="M1018.583,1540.82s-2.205,4.9-2.02,6.368,1.224,9.062,2.388,10.348,9.429,8.756,9.429,8.756l4.411,1.837,3.245-9.062S1019.072,1562,1018.583,1540.82Z" transform="translate(-1015.499 -1523.301)" fill="#00cbff"/>
          <path id="Path_43219" data-name="Path 43219" d="M1139.233,1488.675s16.41,11.45.857,27.431c0,0,.307,7.9,6.8,7.531l7.777-11.511s.98-7.777.245-9.306S1149.52,1490.7,1139.233,1488.675Z" transform="translate(-1102.167 -1486.463)" fill="#00cbff"/>
          <path id="Path_43220" data-name="Path 43220" d="M1288.526,1659.346l2.571-11.45.98-1.161s3.062-6.184,2.572-10.286c0,0,6.246,7.348,3.674,15.185,0,0,7.531-5.694,8.88-18.614,0,0,7.164,6.732,6.98,14.818s-3.674,8.449-3.674,8.449l-3.062,6.062-8.388,4.714s-6.613,2.511-8.938-.306S1288.526,1659.346,1288.526,1659.346Z" transform="translate(-1207.559 -1588.435)" fill="#002760"/>
          <path id="Path_43221" data-name="Path 43221" d="M1371.1,1618.414s3.551,6.613-.061,16.593l-.8,16.9s4.592,11.021,6.98,12.368,3.366,4.959,3.366,4.959L1382,1681.97s3.49-11.817,1.1-18.859-1.041-9.368-1.041-9.368,3.49-10.715,2.572-16.838-4.654-16.776-8.021-19.594a25.092,25.092,0,0,0-6.582-4.01l3.857,4.347s7.654,9.552,2.205,32.206a55.232,55.232,0,0,1-.429-12.552C1376.336,1631.914,1374.744,1622.118,1371.1,1618.414Z" transform="translate(-1265.213 -1574.505)" fill="#002760"/>
          <path id="Path_43222" data-name="Path 43222" d="M1191.536,1559.175l-1.408,6.858,2.939-.306s.307,6.306-1.1,10.47-.061,4.593-.061,4.593.735,15.43.919,15.43,9.919-4.531,9.919-4.531l4.715-7.531a10.362,10.362,0,0,0,3.49-6.613c.49-4.286-3.366-7.9-3.366-7.9s-3.8-4.164-5.572-4.715c0,0,2.3,8.3,1.5,13.746C1203.507,1578.676,1201.18,1560.553,1191.536,1559.175Z" transform="translate(-1138.122 -1536.268)" fill="#002760"/>
          <path id="Path_43223" data-name="Path 43223" d="M1217.182,1634.809s-5.756,18.552-9.674,21.981c0,0-5.082,5.572-6.184,5.082s-5.327-2.263-5.327-2.263l3.062,4.411s-9.123,7.777-4.531,12.919,14.878,9.123,14.878,9.123l-8.388-9.49a2.961,2.961,0,0,1,.551-3.309c1.469-1.409,3.8-4.286,3.8-4.286l9.49-3.857s5.633-4.164,6.306-6.123,2.081-9.307,2.081-9.307l2.206-7.654s1.409-5.327-.857-7.348l-3.7,7.317-3.8,6.98S1219.233,1637.9,1217.182,1634.809Z" transform="translate(-1140.317 -1589.614)" fill="#002760"/>
          <path id="Path_43224" data-name="Path 43224" d="M1135.77,1665.833s1.1,4.654.276,6.152,2.97-2.541,3.031-2.663.062-8.45.062-8.45,5.511-6.551,5.695-6.8,1.041-10.654,1.041-10.654-3.366-.184-4.1,1.225-2.694,4.194-2.694,4.194-1.683,4.411-1.194,7.47a9.79,9.79,0,0,0-6.062.123S1136.722,1662.127,1135.77,1665.833Z" transform="translate(-1096.931 -1595.778)" fill="#002760"/>
          <path id="Path_43225" data-name="Path 43225" d="M1117.094,1661.964a3.521,3.521,0,0,0,.306-1.041c0-.122-.306-1.653-.306-1.653a5.265,5.265,0,0,1-3.551,1.1,6.119,6.119,0,0,1-3.308-1.806s.184,6.644,9.552,5.049l.306-.061C1120.064,1663.521,1116.849,1662.576,1117.094,1661.964Z" transform="translate(-1081.682 -1606.482)" fill="#002760"/>
          <path id="Path_43226" data-name="Path 43226" d="M1093.668,1592.811a3.19,3.19,0,0,1,3.98-1.1c2.755.979,6.552,2.082,10.1-3,0,0,5.817,1.837,6.919.949h0l-.183-1.377a4.2,4.2,0,0,1-3.735-1.161,24.3,24.3,0,0,1-3.245-5.266l.307-2.02-6.307.979-4.561,2.358.306.49s5.633-.061,6.306.49c0,0-.98.245-.8.918s.551,3.246.245,3.551c-.29.29-1.495,1.224-5.3,1.133a5.253,5.253,0,0,0-2.465.529A2.346,2.346,0,0,0,1093.668,1592.811Z" transform="translate(-1069.951 -1550.862)" fill="#002760"/>
          <path id="Path_43227" data-name="Path 43227" d="M1099.424,1718.321l-.183,5.756s-8.327,19.1,1.592,22.9c0,0,5.021,1.837,3.061,7.715a27.089,27.089,0,0,0,3.308,1.592c0-.184.857-10.592.857-10.592l-5.266-3.98s-1.714.306-1.776-2.878a43.378,43.378,0,0,1,1.1-8.2l2.633-4.225s-3.736-6.858-3.8-7.041a9.681,9.681,0,0,0-1.531-1.041Z" transform="translate(-1071.604 -1648.696)" fill="#002760"/>
          <path id="Path_43228" data-name="Path 43228" d="M1019.926,1581.91s3.49,8.511,16.593,10.041l-.98,5.143S1021.763,1592.012,1019.926,1581.91Z" transform="translate(-1017.883 -1552.328)" fill="#0659b5"/>
          <path id="Path_43229" data-name="Path 43229" d="M1143.746,1491.481s20.342,13.3,3.619,32.459l2.321,1.646,6.307-7.835s2.205-3.735,2.263-6.732a27.247,27.247,0,0,0-.735-6.185s-3.308-9.368-8.817-11.511l-5.51-2.148Z" transform="translate(-1104.966 -1488.229)" fill="#0659b5"/>
          <path id="Path_43230" data-name="Path 43230" d="M1184.4,1623.625l.857,7.593-2.939,9.735-2.205-11.143Z" transform="translate(-1131.047 -1581.798)" fill="#002760"/>
          <path id="Path_43231" data-name="Path 43231" d="M1395.788,1528.93s20.145,14.878,6.491,33.615h0l2.329,5.058,5.325-10.079S1416.789,1540.931,1395.788,1528.93Z" transform="translate(-1283.41 -1514.901)" fill="#002760"/>
          <path id="Path_43232" data-name="Path 43232" d="M1304.012,1534.29c.122,0,3.429-2.817,3.429-2.817l3.919-3.245,1.408-3.308a12.315,12.315,0,0,1,10.041,1.286s-5.45-1.1-7.96,1.041c0,0-1.285,5.878-5.082,7.164Z" transform="translate(-1218.575 -1511.689)" fill="#002760"/>
          <path id="Path_43233" data-name="Path 43233" d="M1134.02,1655.031s2.143.612,3.061-.061a5.579,5.579,0,0,0,1.53-2.263c0-.061-.183-3-.183-3s-3.123,1.469-3.674,2.632A10.245,10.245,0,0,0,1134.02,1655.031Z" transform="translate(-1098.485 -1600.224)" fill="#00cbff"/>
          <path id="Path_43234" data-name="Path 43234" d="M1325.287,1607.982s6.613,6.8,2.572,15.368a21.752,21.752,0,0,0,3.98-11.572,15.46,15.46,0,0,1,7.9,9.49s.183-5.266-2.264-8.633,3.8,1.161,5.144,4.1c0,0-1.161-5.021-2.756-6.123S1325.287,1607.982,1325.287,1607.982Z" transform="translate(-1233.605 -1570.747)" fill="#00cbff"/>
          <path id="Path_43235" data-name="Path 43235" d="M1210.776,1552.918s17.7,6.184,18.492,21.981C1229.268,1574.9,1231.9,1556.9,1210.776,1552.918Z" transform="translate(-1152.709 -1531.847)" fill="#00cbff"/>
          <path id="Path_43236" data-name="Path 43236" d="M1188.534,1678.9s-12.184,23.022-12,23.941a11.431,11.431,0,0,0,3.857,7.715l-5.165-2.567-1.567-4.046S1184.677,1679.818,1188.534,1678.9Z" transform="translate(-1126.488 -1620.847)" fill="#00cbff"/>
          <path id="Path_43237" data-name="Path 43237" d="M1083.236,1591.714s-3.49,3.184-4.164,6.184l2.021-.49s-3.429,6.184-3.123,8.511l2.143-3.061s-2.939,9.49,1.9,11.572l-2.878,1.1S1068.236,1600.47,1083.236,1591.714Z" transform="translate(-1057.009 -1559.255)" fill="#00cbff"/>
          <path id="Path_43238" data-name="Path 43238" d="M1099.756,1677.858l2.633,5.633,2.572-3.674s-.551,7.9.919,9.491.673,2.264.673,2.264l-1.592,1.286-5.388-8.88S1098.654,1678.164,1099.756,1677.858Z" transform="translate(-1073.896 -1620.111)" fill="#00cbff"/>
          <path id="Path_43239" data-name="Path 43239" d="M1090.866,1725.83s-2.694,4.959-2.572,5.511-1.531,17.757,1.225,20.512,2.388,2.817,2.388,2.817l-.98.122-1.714-1.041a17.782,17.782,0,0,1-3.062-11.266c.367-6.919.98-13.349.98-13.349Z" transform="translate(-1064.638 -1654)" fill="#00cbff"/>
          <path id="Path_43240" data-name="Path 43240" d="M1216.591,1647.822s2.755,8.633-13.531,19.165l3.612-10.961S1214.694,1652.233,1216.591,1647.822Z" transform="translate(-1147.258 -1598.892)" fill="#00cbff"/>
          <path id="Path_43241" data-name="Path 43241" d="M1110.864,1630.507s-.061,2.263.8,3.245c0,0-.183-1.531.122-1.9,0,0,1.225,2.02,2.264,1.837s3-2.327,3-2.327-1.161-5.266,4.592-7.408c0,0-4.225-.8-6.919,4.96,0,0-1.225,2.878-1.654,1.959s-.367-4.1.428-4.959C1113.5,1625.915,1111.354,1627.017,1110.864,1630.507Z" transform="translate(-1082.125 -1582.005)" fill="#00cbff"/>
          <path id="Path_43242" data-name="Path 43242" d="M1142.863,1492.219s19.1,9.613-.122,30l-.8-4.286s4.286-2.939,5.878-6.613S1149.843,1498.464,1142.863,1492.219Z" transform="translate(-1104.083 -1488.966)" fill="#00cbff"/>
          <path id="Path_43243" data-name="Path 43243" d="M1352.521,1712.17l-3.246,9.613,1.408,7.286,11.879,6.49-.857-2.755-5.143-3.551s-3.551-6.245-1.654-12.674S1352.521,1712.17,1352.521,1712.17Z" transform="translate(-1250.552 -1644.138)" fill="#00cbff"/>
          <path id="Path_43244" data-name="Path 43244" d="M1298.365,1531.914l3-2.817a9.231,9.231,0,0,1,7.286-9.552s-7.715,0-9.184,4.1a31.93,31.93,0,0,0-1.715,7.715l.612.673" transform="translate(-1214.153 -1508.271)" fill="#00cbff"/>
          <path id="Path_43245" data-name="Path 43245" d="M1362.625,1528.165s18.553,2.061,19.41,19.451l-1.347,7.715s-2.633,4.286-2.755,4.286-2.511-.98-2.511-.98l2.756-5.572S1383.809,1536.533,1362.625,1528.165Z" transform="translate(-1259.982 -1514.36)" fill="#00cbff"/>
          <path id="Path_43246" data-name="Path 43246" d="M1310.719,1622.621l-.032,2.321s3.979,2.939,4.959,11.511c0,0,1.3-8.009-3.531-14.3a.779.779,0,0,0-1.4.467Z" transform="translate(-1223.291 -1580.545)" fill="#00cbff"/>
          <g id="Group_48835" data-name="Group 48835">
            <path id="Path_43247" data-name="Path 43247" d="M1263.716,1593.558c.123-1.592.184-9.368-.612-11.389-.174-.441-.374-1.377-.69-2.624a39.236,39.236,0,0,0-1.8-5.545q-.307-.736-.67-1.489a25.659,25.659,0,0,0-1.714-3.021c-.021-.031-.058-.058-.062-.094a8.079,8.079,0,0,0-2.461-3.885,20.714,20.714,0,0,0-8.836-5.326c-5.985-1.811-18.9-5.281-22.891-6,0,0-11.909-16.93-31.358-14.322a19.977,19.977,0,0,1,.542,2.96c2.453-.943,11.438-2.131,19.306,4.747,9.735,8.51,10.287,14.939,8.021,21.859,0,0-.735-9-4.959-13.714.064.141,5.97,13.291.54,23.09a17.287,17.287,0,0,1-7.452,7.01q-.45.232-.929.452c-.479.22.267-.009.723-.072a12.765,12.765,0,0,0,10.85-9.847,29.312,29.312,0,0,0,4.446-8.075,13.628,13.628,0,0,0,.7-6.866s1.225-2.264,2.572-1.1a21.142,21.142,0,0,1,4.776,8.449s.551-5.939-1.1-8.817c0,0,11.633.857,14.328,3.674,1.074,1.123,2.479,2.537,3.834,4.24a20.7,20.7,0,0,1,4.295,8.5h0c.08.38.147.765.2,1.158,0,0,.045-.568.034-1.478h0c-.028-2.276-.406-6.69-2.728-9.666a10.723,10.723,0,0,1,1.3.876,20.257,20.257,0,0,1,4.395,4.712h0a25.336,25.336,0,0,1,3.73,8.8s4.959,10.531-2.694,23.267c0,0-1.408,3.8.551,5.816s1.592,3.49,1.592,3.49l-.307,15s1.531,1.959,1.347,3.062a22.539,22.539,0,0,1-1.041,3.245l-1.041-.49-.429-4.286s-.245,3.552-.919,4.411c-.59.75-1.882,2.344-2.113,2.728-.013.058-.023.086-.03.086s0-.031.03-.086c.174-.743.876-6.14,1.232-9.539.126-1.2.208-2.151.208-2.56,0-1.653.367-10.1-3.429-13.776s-6.429-5.021-7.47-8.45,0-10.592.245-14.818a31.658,31.658,0,0,0-.338-6.7c-.03-.189-.058-.348-.082-.474-.043-.232-.07-.353-.07-.353s-6,14.389-15.307,18.92c0,0,12.8-15.491,10.1-27.492a30.855,30.855,0,0,1-18.675,24.8s6.245-5.695,6.429-18.247c0,0-1.531,9.491-7.1,14.021,0,0,1.517-5.715,2.618-11.636a57.742,57.742,0,0,0,1.117-9.121s-.033.164-.1.464c-.674,2.832-4.772,17.756-17.223,22.128a19.138,19.138,0,0,1-7.09.547h0l-.245-.035a10.846,10.846,0,0,1-3.134-.941,9.407,9.407,0,0,0,5.878,3.857s-4.776,2.755-6.429,6.552a17.667,17.667,0,0,1-4.095.391,1.46,1.46,0,0,1-.8-.268l-.015.025a9.744,9.744,0,0,0,.7.682c1.089.952,2.925,2.112,4.759,1.252,0,0,4.286-5.143,6.8-6.184s15.246-4.837,17.389-15.612c0,0,.245,10.9-14.328,15.368,0,0-3.429,1.161-4.286,2.388s-3.98,5.021-5.083,5.266c-.878.195-3.464.74-5.408-.624a4.389,4.389,0,0,1-.639-.547,3.131,3.131,0,0,0,.693.983,6.785,6.785,0,0,0,1.987,1.291c4.164,1.9,5.2,3.674,5.2,3.674l7.108,5.888,1.1.909s3.184,1.531,4.1,2.939a5.327,5.327,0,0,1,.8,2.983h.007a.343.343,0,0,0,.044.009l.2.02,1.983.2-.1-.489-.854-4.378s3.366-1.96,4.593-.979a12.425,12.425,0,0,1,2.347,3.5c.816-.281,1.349-.474,1.349-.474l1.492,1.95-5.647-8.562s-3.735,1.9-6.49.98-10.776-9-10.47-10.041c0,0,2.263-5.327,6.613-4.714,0,0,13.96,5.082,18.368,4.041,0,0,.979,6.733,6.98,10.041a10.006,10.006,0,0,1,5.205,9.613s-.857,6.062-.306,6.98a55.042,55.042,0,0,1,1.9,6.429l6.368-5.143.306-2.206,1.1.122a2.611,2.611,0,0,0,.245-1.408c-.122-.674-1.775-4.592-1.775-4.592s1.409-7.286.49-8.389-4.866-7.357-4.9-7.408c.072.036,9.094,4.69,9.583,6.337s.674,12.185.49,13.838-.612,8.756-.122,9.735,3.429,5.082,4.347,4.959,7.225-6.123,6.919-7.1-1.1-2.939-1.1-2.939a6.189,6.189,0,0,0,.919-3.551c-.242-1.714-1.225-4.286-1.225-4.837s1.161-15.736.673-16.41-2.082-2.755-1.776-4.225S1263.594,1595.15,1263.716,1593.558ZM1211,1600.049c15.346,4.79,25.4,1.231,25.59,1.161-11.874,6.149-25.442-1.081-25.59-1.161Zm25.531,15.123c-1.837-1.286-6.245-2.694-8.2-10.348l1.225-.184s2.388,6,5.082,7.531,6.184,3.919,5.327,10.715c0,0-1.593-6.429-3.429-7.714Zm6.858,13.96a6.64,6.64,0,0,1-3.98,1.654l.49-5.2a20.786,20.786,0,0,1,.551,3c0,.8,2.938.551,2.938.551Zm-2.021-36.431c-4.744,14.9,7.552,19.351,7.713,19.408-16.221-4.086-7.782-19.287-7.714-19.408Z" transform="translate(-1138.817 -1522.433)" fill="#00061e"/>
            <path id="Path_43248" data-name="Path 43248" d="M1130.144,1746.03l-.2.232-.069-.012c-.925-.29-1.035-.638-.8-.961l1.219.38A2.993,2.993,0,0,1,1130.144,1746.03Z" transform="translate(-1094.917 -1667.747)" fill="#00061e"/>
            <path id="Path_43249" data-name="Path 43249" d="M1112.317,1766.676a4.814,4.814,0,0,1-.183,1.531c-.245.98-1.959,1.04-1.959,1.04l-.261-1.223-.137-.644-.058-.034a4.547,4.547,0,0,0,1.251-2.813c.428-2.572-3.366-6.368-3.366-6.368a6.076,6.076,0,0,1,3.613,3.062,6.5,6.5,0,0,0,0-2.327c-.245-1.1-3.98-3.429-3.98-3.429a15.381,15.381,0,0,1-1.66,4.174,7.145,7.145,0,0,1-2.765,2.829c-.427-.361-.84-.731-1.231-1.1a4.628,4.628,0,0,0,2.725-2.34,17.415,17.415,0,0,0,1.706-3.927c-.857-.551-2.327-4.411-2.327-4.411a8.318,8.318,0,0,1-2.205,3c3.8-10.716,2.574-15.3,1.521-17.074a2.963,2.963,0,0,0-.847-.987,2.788,2.788,0,0,1,.987.4,10.794,10.794,0,0,1,2.747,2.968c.414.124.885-.509,1.146-.929a3.83,3.83,0,0,0,1.443.831,12.868,12.868,0,0,0,1.977.528l.04.012.084.025a6,6,0,0,1-3.312,2.138c.49,1.837-1.53,7.1-1.53,7.1a6.833,6.833,0,0,0-.061,2.51c.245,1.161,3.123,3.366,3.123,3.366a6.168,6.168,0,0,1,4.133,4.684A14.587,14.587,0,0,1,1112.317,1766.676Z" transform="translate(-1075.496 -1660.925)" fill="#00061e"/>
            <path id="Path_43250" data-name="Path 43250" d="M1096.146,1752.434c-5.021-1.409-10.531-8.511-12.062-9.735s-2.51-5.694-2.388-8.327-.735-14.144,1.347-15.8c1.709-1.357,4.118-5.353,4.928-6.741.1.186.576,1.083,1.2,2.252-.821,2.291-4.494,5.579-5.053,6.418-.612.919-.551,16.348.735,20.389a9.943,9.943,0,0,0,2.7,3.665,2.263,2.263,0,0,1-.464.039l1.47,1.161a1.983,1.983,0,0,0,.228-.1,52.369,52.369,0,0,0,5.172,3.787c.9.58,1.547.973,1.737,1.086a1.088,1.088,0,0,1-.279.187l.139.323Z" transform="translate(-1061.468 -1644.112)" fill="#00061e"/>
            <path id="Path_43251" data-name="Path 43251" d="M1080.723,1595.356l-1.194,2.915a12.077,12.077,0,0,1-1.206.3,12.266,12.266,0,0,1,2.4-3.213Z" transform="translate(-1059.137 -1561.827)" fill="#00061e"/>
            <path id="Path_43252" data-name="Path 43252" d="M1151.605,1588.406a4.082,4.082,0,0,0-.327-1.122l-.489,1-.181.366-.639,1.3a7.2,7.2,0,0,1,.334,1.249,31.2,31.2,0,0,1-2.47,3.895,59.377,59.377,0,0,1,.55,6.3q-.167.312-.351.629-.194.337-.41.679l.185,12.386a3.727,3.727,0,0,1-1.745.339,13.955,13.955,0,0,1-5.133-1.248s1.023,2.948,8.453,2.647l-.073.082-2.048,1.587-.349,1.154-.03.034a8.832,8.832,0,0,0-5.445-1.5s.241,4.091-4.6,6.046a5.615,5.615,0,0,1-4.368.356c.053-.083.1-.169.147-.258l2.086-2.415a.616.616,0,0,0,.058-.1,3.746,3.746,0,0,0,.919.008c-.109.39-.2.633-.2.633h.933a6.845,6.845,0,0,0,.5-1.012,4.257,4.257,0,0,0,1.948-2.4s1.8-9.145-4.875-11.762a9.784,9.784,0,0,1,5.595,2.557,4.854,4.854,0,0,1,1.414-3.339c1.445-1.323,3.339-3.188,3.67-6.106a15.631,15.631,0,0,0-.631-5.836,17.8,17.8,0,0,0-3.486,3.064l0,0q-.091.126-.167.248l0,.006a1.348,1.348,0,0,0-.252.829l.12,2.076a2.257,2.257,0,0,1-.8-1.427c-.182-1.038.139-2.683,2.218-5.07,0,0,1.745-2.226-1.564-7.882a10.237,10.237,0,0,1,3.639,4.962c-.032-.149-1.556-7.367,4.933-10.225,0,0,.3,5.233-1.353,8.752a17.36,17.36,0,0,0,3.536-13.134l.058-.026.607-1.14,1.262-2.371.132-.2A24.723,24.723,0,0,1,1151.605,1588.406Z" transform="translate(-1097.389 -1546.041)" fill="#00061e"/>
            <path id="Path_43253" data-name="Path 43253" d="M1069.939,1627.854l-.451,2.406s-.095-.032-.269-.1q.061-.491.164-1,.145-.711.3-1.385Z" transform="translate(-1052.706 -1584.732)" fill="#00061e"/>
            <path id="Path_43254" data-name="Path 43254" d="M1159.509,1542.162l-1.144,3.73q-.591.09-1.151.224a9.128,9.128,0,0,0,1.509-3.623C1159.226,1542.274,1159.509,1542.162,1159.509,1542.162Z" transform="translate(-1114.871 -1524.249)" fill="#00061e"/>
            <path id="Path_43255" data-name="Path 43255" d="M1034.553,1548.08a12.247,12.247,0,0,0-2.4,3.215c-4.071.824-17.005,1.871-16.091-18.377a22.058,22.058,0,0,0,.516,13.709,16.659,16.659,0,0,0,.858,1.789,16.874,16.874,0,0,0,4.046,4.838,24.041,24.041,0,0,0,8.464,4.345q-.151.645-.29,1.323c0,.02-.008.042-.013.061q-.1.508-.164,1c-2.8-1.039-26.132-10.485-12-31.549C1017.476,1528.434,1012.433,1551.24,1034.553,1548.08Z" transform="translate(-1012.968 -1514.551)" fill="#00061e"/>
            <path id="Path_43256" data-name="Path 43256" d="M1144.175,1737.982a6.863,6.863,0,0,1-.5,1.012h-.933s.086-.243.195-.633A3.511,3.511,0,0,0,1144.175,1737.982Z" transform="translate(-1104.644 -1662.585)" fill="#00061e"/>
            <path id="Path_43257" data-name="Path 43257" d="M1194.358,1540.528a20.025,20.025,0,0,1,.542,2.96,7.944,7.944,0,0,0-.9.4l-.428-3.245Q1193.962,1540.576,1194.358,1540.528Z" transform="translate(-1140.555 -1523.094)" fill="#00061e"/>
            <path id="Path_43258" data-name="Path 43258" d="M1122.02,1543.291a9.126,9.126,0,0,1-1.509,3.623,17.046,17.046,0,0,0-9.252,6.281q-.537.2-1.1.4l-4.9,2.147C1110.016,1548.924,1119.278,1544.494,1122.02,1543.291Z" transform="translate(-1078.165 -1525.046)" fill="#00061e"/>
            <path id="Path_43259" data-name="Path 43259" d="M1132.556,1739.161a.634.634,0,0,1-.058.1l-2.086,2.416a2.929,2.929,0,0,0,.155-.36l-1.219-.38a5.346,5.346,0,0,1,1.949-1.073l1.068-.737S1132.431,1739.143,1132.556,1739.161Z" transform="translate(-1095.184 -1663.394)" fill="#00061e"/>
            <path id="Path_43260" data-name="Path 43260" d="M1121.936,1578.05l.911-.14c-.135.185-.245.343-.329.468Z" transform="translate(-1089.948 -1549.503)" fill="#00061e"/>
            <path id="Path_43261" data-name="Path 43261" d="M1092,1626.023c-.061.033-.123.062-.183.09a3.551,3.551,0,0,1-1.057.29c.4-1.422,1.087-4.8-1.038-5.534,0,0-4.633.993-5.385,3.73a3.837,3.837,0,0,0,3.49,1.683s.6-1.925.211-2.226c0,0,1.534-1.324,1.865.271a3.251,3.251,0,0,1-.061,2.066c-.124-.018-.194-.036-.194-.036l-1.068.738a5.341,5.341,0,0,0-1.948,1.073l-1.329-.413-1.094-.34s-.077.154-.2.354a1.166,1.166,0,0,1-.181-.254c-.363-.708-2.239-4.245-3.554-6.722l-.1-.2a2.7,2.7,0,0,0,.152-.623c.245-2.263-1.071-2.112-1.071-2.112s-.1.179-.277.483l-.019-.036s-1.535-4.212-1.866-4.632-2.768-5.746-3.158-5.926a13.17,13.17,0,0,1-4.947-11.694c.174.064.27.1.27.1l.194-1.037.257-1.37-.255-.076a33.869,33.869,0,0,1,1-3.507,20.006,20.006,0,0,1,1.207-2.8,12.262,12.262,0,0,0,1.207-.3l1.193-2.916a10.918,10.918,0,0,1,5.049-2.635l.455-.2q-.29.416-.56.846l5.837-2.346s.068-.116.2-.319l1.277.718.28.158s.058.011.163.029c0,0-5.972,1.547-7,2.99l0,0s-6.828.271-8.483,12.872c.038-.123,1.284-4.063,3.564-5.366a12.162,12.162,0,0,0-2.407,10.228s.211-1.835,1.535-2.346c0,0-1.776,3.76.3,5.688,0,0,1.2.782.842,1.444,0,0,2.828.631,3.366-3.189,0,0,1.5,3.67-3.1,4.693,0,0,.813,1.2,3.1,1.023a14.239,14.239,0,0,0-.33,3.188c.211.3,2.286,5.565,2.738,6.046l.542-2.557s-.211,3.25.331,4,2.076,2.828,2.076,2.828,2.948-2.075,5.355-1.985c0,0,1.473-2.164,1.173-3.068a5.767,5.767,0,0,1,.511,2.736,5.678,5.678,0,0,1,.514.714A6.273,6.273,0,0,1,1092,1626.023Z" transform="translate(-1052.471 -1550.626)" fill="#00061e"/>
            <path id="Path_43262" data-name="Path 43262" d="M1126.861,1576.544l-1.219,1.774-.163-.029-1.554-.876c.084-.125.194-.283.329-.468Z" transform="translate(-1091.353 -1548.538)" fill="#00061e"/>
            <path id="Path_43263" data-name="Path 43263" d="M1132.321,1747.812c-.045.089-.094.174-.147.258l-.084-.025-.039-.012.069.012Z" transform="translate(-1097.094 -1669.53)" fill="#00061e"/>
            <path id="Path_43264" data-name="Path 43264" d="M1123.039,1577.032c-.069.091-.133.174-.193.258l-.911.14Q1122.5,1577.235,1123.039,1577.032Z" transform="translate(-1089.948 -1548.882)" fill="#00061e"/>
            <path id="Path_43265" data-name="Path 43265" d="M1196.853,1573.7l-1.869,3.511-.058.026q-.036-.215-.077-.432Z" transform="translate(-1141.457 -1546.529)" fill="#00061e"/>
            <path id="Path_43266" data-name="Path 43266" d="M1120.6,1742.727l2.422.755c-.238.323-.129.668.8.96-.419-.076-2.64-.511-3.42-1.359C1120.527,1742.88,1120.6,1742.727,1120.6,1742.727Z" transform="translate(-1088.864 -1665.937)" fill="#00061e"/>
            <path id="Path_43267" data-name="Path 43267" d="M1103.525,1710.183s1.316-.153,1.072,2.112a2.738,2.738,0,0,1-.151.623l-1.2-2.253C1103.424,1710.362,1103.525,1710.183,1103.525,1710.183Z" transform="translate(-1076.746 -1642.945)" fill="#00061e"/>
            <path id="Path_43268" data-name="Path 43268" d="M1108.8,1578.389l.58.327c-.136.2-.205.319-.205.319l-5.836,2.346q.268-.429.56-.845Z" transform="translate(-1076.807 -1549.841)" fill="#00061e"/>
            <path id="Path_43269" data-name="Path 43269" d="M1145.839,1509.235a18.343,18.343,0,0,0,.747-4.969,20.971,20.971,0,0,0-.111-2.732,7.9,7.9,0,0,0-.9.4l-.429-3.245q.391-.068.786-.116c-1.586-6.05-6.547-13.233-20.16-17.434.085.069,11.769,9.5,10.211,18.246.5-.22.783-.332.783-.332l-1.143,3.73q-.591.09-1.151.225c-1.608,2.328-4.513,4.494-9.252,6.281-.07.09-.133.174-.193.258l2.612-.4-1.025,1.488-.2.286a12.858,12.858,0,0,0,2.875.272s-1.354,7.129,7.069,7.881l.464.879.045.085s.048-.082.141-.232h0c.689-1.109,3.869-5.9,8.585-7.955-.024-.143-.049-.287-.077-.432l.454-.7,1.549-2.4.116-.218Zm-14.951,2.136c16.22-15.352.168-26.864,0-26.984l.058.028a32.755,32.755,0,0,1,6.768,4.208q.617.51,1.165,1.03c12.915,12.246-2.67,27.944-2.67,27.944q-.257-.075-.5-.156-.377-.125-.716-.261a8.68,8.68,0,0,1-2.38-1.364,4.444,4.444,0,0,1-1.724-4.446Z" transform="translate(-1092.133 -1481.139)" fill="#00061e"/>
            <path id="Path_43270" data-name="Path 43270" d="M1184.9,1715.524l0,.129a.955.955,0,0,1-.174.113C1184.73,1715.759,1184.793,1715.672,1184.9,1715.524Z" transform="translate(-1134.306 -1646.72)" fill="#00061e"/>
            <path id="Path_43271" data-name="Path 43271" d="M1128.934,1843.694l.4,1.868-.735-1.714a1.093,1.093,0,0,0,.279-.187Z" transform="translate(-1094.654 -1737.242)" fill="#00061e"/>
            <path id="Path_43272" data-name="Path 43272" d="M1262.662,1830.383l-.052.006v-.018h.007A.2.2,0,0,0,1262.662,1830.383Z" transform="translate(-1189.327 -1727.854)" fill="#00061e"/>
            <path id="Path_43273" data-name="Path 43273" d="M1184.074,1722.548l-2.395,2.741.348-1.154Z" transform="translate(-1132.154 -1651.682)" fill="#00061e"/>
            <path id="Path_43274" data-name="Path 43274" d="M1184.852,1669.7a.2.2,0,0,1-.009.045l-.387,13.407-.179.242-.185-12.386Q1184.508,1670.34,1184.852,1669.7Z" transform="translate(-1133.858 -1614.345)" fill="#00061e"/>
            <path id="Path_43275" data-name="Path 43275" d="M1193.39,1621.634a4.074,4.074,0,0,1,.327,1.123,28.809,28.809,0,0,1-1.3,2.786,7.256,7.256,0,0,0-.334-1.249Z" transform="translate(-1139.502 -1580.391)" fill="#00061e"/>
            <path id="Path_43276" data-name="Path 43276" d="M1101.926,1824.421a1.915,1.915,0,0,1-.228.1l-1.469-1.161a2.271,2.271,0,0,0,.467-.039C1101.086,1823.691,1101.5,1824.06,1101.926,1824.421Z" transform="translate(-1074.613 -1722.873)" fill="#00061e"/>
            <path id="Path_43277" data-name="Path 43277" d="M1208.444,1679.834s-7.581,1.174-8.935,1.745a10.412,10.412,0,0,1-5.1.015c-.9-.271-18.953-14.44-18.953-14.44-2.045-.3-3.79-2.858-3.79-2.858-4.242-3.881,1.865-12.786,1.865-12.786l.015-.049,2.394-2.741.088-.067c.211-1.625,3.519-7.4,3.519-7.4-1.228.522-4.173,4.394-4.93,5.405l.328-11.389.058-2.018a.378.378,0,0,0,.01-.045,15.461,15.461,0,0,0,1.918-10.2q.268-.5.509-1c.054-.109.106-.219.157-.327q.348-.738.639-1.461a37.889,37.889,0,0,1,.3,5.556c.962,1.683.993,9.957.993,9.957,8.183-5.655,4.6-17.689,4.6-17.689,4.031,3.73,3.73,13.266,3.73,13.266a11.977,11.977,0,0,0,5.324-11.31,13.266,13.266,0,0,1,.566,5.384c-.781,7.092-7.7,10.589-7.7,10.589-.692.812-6.8,11.549-6.8,11.549a77.991,77.991,0,0,0-6.136,9.957c-3.25,6.167,3.7,8.544,3.7,8.544l16.725,12.755a22.453,22.453,0,0,0,3.753,1.593v.018l.052-.006a1.362,1.362,0,0,0,.2.02,8.179,8.179,0,0,0,1.825-.273l.062-.014c1.9-.447,4.518-1.313,6.086-1.854.18.362.286.6.286.6l2.6.949-.047-.071Z" transform="translate(-1124.022 -1577.856)" fill="#00061e"/>
            <path id="Path_43278" data-name="Path 43278" d="M1293.471,1823.519l.047.071-2.6-.949s-.106-.236-.286-.6c.817-.281,1.349-.475,1.349-.475Z" transform="translate(-1209.122 -1721.635)" fill="#00061e"/>
            <path id="Path_43279" data-name="Path 43279" d="M1118.577,1635.682a4.591,4.591,0,0,1,4.031-3.941s-2.617-1.414-5.024,1.805c0,0,.481-3.549,2.678-4.843,0,0-4.063-.18-3.911,6.378,0,0-2.406,5.715-5.688,1.625,0,0-.03,1.593.5,1.915a5.068,5.068,0,0,1-2.2-3.586,6.983,6.983,0,0,0,.383,2.444c.617,1.712,2.209,3.482,6.3,2.189l-.27.9a8.753,8.753,0,0,0,.884.138c1.323.145,3.759.16,4.681-1.491a7.869,7.869,0,0,0,.348-4.2l.843-1.625S1119.3,1634.448,1118.577,1635.682Zm.933,3.55a5.294,5.294,0,0,1-2.618.782s.871-3.37,3.189-3.941c0,0,.6,2.376-.571,3.159Z" transform="translate(-1080.783 -1585.385)" fill="#00061e"/>
          </g>
          <path id="Path_43280" data-name="Path 43280" d="M1233.1,1576.07s10.409,9.735,8.2,21.859C1241.3,1597.929,1247.852,1582.622,1233.1,1576.07Z" transform="translate(-1168.477 -1548.203)" fill="#00061e"/>
          <path id="Path_43281" data-name="Path 43281" d="M1399.451,1694.588s-2.817-1.9-1.347-6.918,4.776-11.511,2.082-14.818c0,0,2.694,1.715,1.408,9.246S1399.145,1689.813,1399.451,1694.588Z" transform="translate(-1284.746 -1616.575)" fill="#00061e"/>
          <path id="Path_43282" data-name="Path 43282" d="M1338.163,1549.984s-2.865,6.1-2.894,11.153a10.415,10.415,0,0,0,.2,2.195l-2.575-6.655-.671-1.734s.221-.3.574-.84c2.355-3.628,10.584-18.275-1.554-29.773a17.588,17.588,0,0,0-5.321-4.683c-3.694-2.255-9.5-4.407-18.007-4.073,0,0-13.226-.307-11.817,11.085a22.963,22.963,0,0,1,6.674-5.082l3.018-4.142.106-.144s-.8,4.592-3.735,6.306a30.437,30.437,0,0,0-3.8,2.449,16.4,16.4,0,0,1,2.142-.183c.368.061,5.878,1.531,6.8-6.613a11.471,11.471,0,0,1,7.152-1.477c3.026.3,6.814,1.707,10.969,5.64,10.164,9.613,6,18.614,6,18.614l-2.205,5.326a17.21,17.21,0,0,0,4.347-12,20.722,20.722,0,0,1-.244,11.621h0a14.313,14.313,0,0,1-2.242,4.109q-.245.313-.513.618l-.03-.033-5.94-6.549c.137-.022.27-.047.4-.074,5.543-1.179,4.927-7.65,3.767-12.15a17.981,17.981,0,0,0-4.5-8.015c-8.712-9-15.771-5.293-15.771-5.293s-2.051,9.888-9.521,7.317a5.8,5.8,0,0,0-4.411,3.551s-3.643-16.5,13.562-16.318c0,0,13.382-3.953,24.7,8.378a26.614,26.614,0,0,1,5.451,27.153C1338.242,1549.771,1338.2,1549.877,1338.163,1549.984Z" transform="translate(-1211.671 -1504.024)" fill="#00061e"/>
          <path id="Path_43283" data-name="Path 43283" d="M1101.9,1652.411a6.149,6.149,0,0,1,.184,4.9S1104.714,1654.8,1101.9,1652.411Z" transform="translate(-1075.792 -1602.134)" fill="#00061e"/>
          <path id="Path_43284" data-name="Path 43284" d="M1153.913,1500.355s13.776,15.736-4.041,29.267l3,1.837s13.593-14.266,2.817-29.329Z" transform="translate(-1109.683 -1494.714)" fill="#00061e"/>
          <path id="Path_43285" data-name="Path 43285" d="M1022.637,1587.75a16.646,16.646,0,0,0,11.085,8.633,16.4,16.4,0,0,1-8.633-3.062Z" transform="translate(-1019.799 -1556.454)" fill="#00061e"/>
        </g>
      </g>
    </g>
  </g>
</svg>
