<svg xmlns="http://www.w3.org/2000/svg" xmlns:xlink="http://www.w3.org/1999/xlink" width="167" height="167" viewBox="0 0 167 167">
  <defs>
    <clipPath id="clip-path">
      <rect id="Rectangle_9391" data-name="Rectangle 9391" width="167" height="167" transform="translate(-18312 -23888)"/>
    </clipPath>
    <clipPath id="clip-path-2">
      <path id="inside" d="M680.795,790.7l-22.75,66.361a14.9,14.9,0,0,0,0,14.909l25.349,43.906a14.954,14.954,0,0,0,12.911,7.455H747a14.954,14.954,0,0,0,12.911-7.455l25.349-43.906a14.9,14.9,0,0,0,0-14.909L772.6,790.7Z" transform="translate(-656.047 -790.697)" fill="none"/>
    </clipPath>
    <clipPath id="clip-path-3">
      <path id="inside-2" data-name="inside" d="M759.915,950.476l25.349-43.906a14.9,14.9,0,0,0,0-14.909l-25.349-43.906A14.953,14.953,0,0,0,747,840.3h-50.7a14.953,14.953,0,0,0-12.911,7.455l-25.349,43.906a14.9,14.9,0,0,0,0,14.909l25.349,43.906a14.954,14.954,0,0,0,12.911,7.455H747A14.954,14.954,0,0,0,759.915,950.476Z" transform="translate(-656.047 -840.301)" fill="none"/>
    </clipPath>
    <linearGradient id="linear-gradient" x1="0.5" x2="0.5" y2="1" gradientUnits="objectBoundingBox">
      <stop offset="0" stop-color="#ff6ba5"/>
      <stop offset="1" stop-color="red"/>
    </linearGradient>
  </defs>
  <g id="Mask_Group_46" data-name="Mask Group 46" transform="translate(18312 23888)" clip-path="url(#clip-path)">
    <g id="Group_51665" data-name="Group 51665" transform="translate(-18302 -23878.211)">
      <g id="Group_51475" data-name="Group 51475" transform="translate(0.001 8.21)">
        <path id="Path_64567" data-name="Path 64567" d="M752.049,944.611l27.112-46.959a15.943,15.943,0,0,0,0-15.946l-27.112-46.96a15.994,15.994,0,0,0-13.809-7.973H684.014a15.993,15.993,0,0,0-13.809,7.973l-27.112,46.96a15.943,15.943,0,0,0,0,15.946l27.112,46.959a15.994,15.994,0,0,0,13.809,7.974H738.24A15.994,15.994,0,0,0,752.049,944.611Z" transform="translate(-637.945 -824.073)" fill="#070707"/>
        <path id="Path_64568" data-name="Path 64568" d="M746.859,940.741l28.276-48.974a16.627,16.627,0,0,0,0-16.63l-28.276-48.975a16.679,16.679,0,0,0-14.4-8.315H675.906a16.679,16.679,0,0,0-14.4,8.315l-28.276,48.975a16.627,16.627,0,0,0,0,16.63L661.5,940.741a16.68,16.68,0,0,0,14.4,8.316h56.551A16.68,16.68,0,0,0,746.859,940.741Z" transform="translate(-631 -817.847)" fill="#fff"/>
        <path id="Path_64569" data-name="Path 64569" d="M752.049,944.611l27.112-46.959a15.943,15.943,0,0,0,0-15.946l-27.112-46.96a15.994,15.994,0,0,0-13.809-7.973H684.014a15.993,15.993,0,0,0-13.809,7.973l-27.112,46.96a15.943,15.943,0,0,0,0,15.946l27.112,46.959a15.994,15.994,0,0,0,13.809,7.974H738.24A15.994,15.994,0,0,0,752.049,944.611Z" transform="translate(-637.945 -824.073)" fill="#070707"/>
      </g>
      <g id="journalism" transform="translate(7.575 0)">
        <g id="Group_51484" data-name="Group 51484" clip-path="url(#clip-path-2)">
          <g id="Group_51483" data-name="Group 51483" transform="translate(0 9.609)">
            <g id="Group_51477" data-name="Group 51477" transform="translate(0 5.391)">
              <g id="Group_51476" data-name="Group 51476" clip-path="url(#clip-path-3)">
                <rect id="Rectangle_9248" data-name="Rectangle 9248" width="212.968" height="166.314" transform="translate(-40.014 -38.48)" fill="url(#linear-gradient)"/>
              </g>
            </g>
            <g id="Group_51482" data-name="Group 51482" transform="translate(4.142)">
              <path id="Element_2" data-name="Element 2" d="M688.08,891.007c.155-.056.31-.109.465-.159q0,.253,0,.506-.234.069-.466.147,0-.247,0-.494Zm-.105,6.767q0,.347,0,.695.328-.095.656-.179c0-.237,0-.474,0-.711q-.328.092-.656.2Zm-.165,6.711q0,.51,0,1.021.483-.117.967-.222c0-.348,0-.7,0-1.044q-.483.116-.966.246Zm8.046-8.912c0,.363,0,.726,0,1.089q.491-.109.983-.2,0-.553,0-1.107-.491.1-.982.223Zm-8.269,15.561q0,.735,0,1.469c.465-.092.929-.178,1.394-.261q0-.751,0-1.5-.7.139-1.392.3Zm8.1-8.586c0,.49,0,.979,0,1.469q.664-.125,1.329-.234,0-.746,0-1.493-.664.12-1.327.258Zm-8.383,15.167q0,1.019,0,2.037.968-.149,1.937-.281c0-.694,0-1.389,0-2.084q-.968.156-1.934.328Zm8.162-8.254c0,.657,0,1.313,0,1.969q.892-.137,1.785-.256,0-1,0-2-.892.134-1.783.289Zm-.263,6.859c0,.854,0,1.707,0,2.56q1.163-.14,2.325-.26,0-1.3,0-2.6-1.162.141-2.323.3Zm-8.238,7.9q0,1.362-.006,2.722,1.3-.141,2.595-.266,0-1.392,0-2.786-1.3.156-2.591.33Zm7.911-1.123q0,1.644,0,3.287,1.5-.126,2.993-.239,0-1.671-.005-3.342-1.495.136-2.989.293Zm-8.306,7.548q0,1.763-.007,3.526,1.684-.107,3.367-.2.006-1.8,0-3.607-1.682.135-3.363.286Zm16.094-8.6q.008,2.061.012,4.122,1.816-.112,3.633-.2c0-1.389-.007-2.778-.016-4.166-1.21.077-2.419.157-3.629.248Zm-8.148,7.773q0,2.043,0,4.086,1.863-.094,3.727-.179,0-2.077-.006-4.154-1.861.115-3.723.247Zm8.111-.513q.008,2.126.012,4.251,1.878-.071,3.755-.132c-.005-1.432-.008-2.865-.017-4.3q-1.875.08-3.75.177Zm-16.264,7.921q0,1.966-.008,3.931l3.763-.07q0-2.011,0-4.022-1.879.076-3.758.162ZM710.718,921.5q.013,2.167.022,4.335,1.874-.069,3.747-.12-.013-2.177-.027-4.357-1.871.059-3.742.141Zm-16.21,15.4q0,2.059,0,4.116,1.881-.031,3.763-.062,0-2.092-.007-4.185-1.879.061-3.758.131Zm26.122,38.625q0,.562.007,1.123.489,0,.978-.015c0-.374-.007-.749-.009-1.123q-.489.012-.976.014Zm-34.208-31.446q0,1.892-.008,3.784,1.816.046,3.631.084.005-1.937,0-3.873l-3.625,0Zm42.307,33.969c0,.4.005.8.009,1.205q.524,0,1.049-.016c0-.4-.008-.8-.01-1.2q-.524.013-1.047.016Zm-16.379-2.674q0,.615.006,1.23.539.027,1.078.04c0-.412,0-.824-.007-1.236q-.539-.011-1.077-.034Zm-25.765-24.325q0,1.707-.007,3.414,1.641.113,3.283.212,0-1.748,0-3.494-1.639-.062-3.278-.132Zm26.06,32.1c0,.218,0,.436,0,.654q.287.017.574.026,0-.328,0-.657c-.191-.005-.382-.013-.574-.023ZM686.825,958.12q0,1.443-.006,2.886,1.389.157,2.779.294,0-1.476,0-2.952-1.388-.107-2.775-.228Zm.244,7.1q0,1.175,0,2.351,1.134.177,2.269.333c0-.8,0-1.6,0-2.406q-1.134-.132-2.267-.279Zm-15.658-61.735c0,.18,0,.36,0,.54q.293-.118.587-.23c0-.187,0-.374,0-.562-.2.081-.391.165-.586.251Zm-.211,5.9q0,.424-.007.848.461-.157.922-.3c0-.293,0-.587.006-.88q-.461.163-.921.337Zm8.113-2.62q0,.408,0,.815.41-.12.82-.231,0-.42,0-.84c-.273.081-.546.167-.819.256Zm-8.356,8.48c0,.4-.007.81-.01,1.214q.661-.183,1.324-.354c0-.421.006-.841.008-1.261q-.661.195-1.322.4Zm8.11-2.193q0,.625-.006,1.249.629-.15,1.259-.288c0-.429,0-.858,0-1.287q-.629.155-1.258.326Zm-8.4,8q-.006.828-.013,1.657.9-.193,1.809-.374c0-.574.008-1.147.012-1.721q-.9.212-1.808.437Zm8.1-1.774q0,.891-.009,1.781.9-.165,1.8-.318c0-.612.006-1.224.006-1.836q-.9.177-1.8.372Zm-8.435,7.516q-.008,1.1-.017,2.19,1.2-.178,2.4-.347c0-.758.011-1.517.015-2.275q-1.2.21-2.395.432Zm8.089-1.36c-.006.8-.007,1.608-.012,2.412q1.222-.159,2.443-.3.005-1.243.009-2.486-1.22.18-2.44.377Zm-8.487,7.016c-.007.946-.013,1.892-.023,2.837q1.555-.134,3.112-.26.008-1.474.02-2.948-1.554.18-3.109.37Zm8.089-.937c0,1.047-.012,2.094-.016,3.141q1.594-.121,3.188-.232c.005-1.079.007-2.158.012-3.237q-1.592.157-3.184.327Zm.745,28.244q.9.194,1.8.372c0-.612,0-1.224-.006-1.836q-.9-.152-1.8-.318.006.891.009,1.782Zm-.347-6.156q1.219.2,2.44.377,0-1.242-.009-2.486-1.221-.146-2.443-.3c.006.8.007,1.608.012,2.412Zm-.4-6.079q1.592.17,3.184.327c0-1.079-.007-2.158-.012-3.237q-1.594-.112-3.188-.232c0,1.047.012,2.095.016,3.141Zm-8.259-9.261q-.012,1.531-.025,3.062l3.365-.076c.01-1.06.012-2.12.022-3.181q-1.681.1-3.362.2Zm7.986-.589q-.006,1.81-.018,3.621l3.683-.077c.005-1.243.008-2.487.013-3.731q-1.839.089-3.678.187Zm-7.747,6.778q-.009,1.269-.021,2.538,1.4.055,2.795.106c.007-.879.009-1.758.018-2.636l-2.792-.008Zm.221,6.2c-.008.682-.011,1.364-.017,2.047q1.129.116,2.259.222.01-1.063.014-2.126-1.128-.069-2.256-.143Zm.183,6.188q-.007.815-.013,1.63.9.148,1.8.285c0-.564.008-1.128.011-1.693q-.9-.107-1.8-.222Zm.145,6.173q0,.641-.01,1.281.709.16,1.419.31c0-.444.007-.887.009-1.33q-.709-.126-1.418-.26Zm99.081-72c-.155-.056-.31-.109-.466-.159q0,.253,0,.506.234.069.466.147,0-.247,0-.494Zm.1,6.767q-.328-.1-.656-.2c0,.237,0,.474,0,.711q.328.085.656.179c0-.232,0-.463,0-.695Zm.165,6.711q-.483-.13-.966-.246c0,.348,0,.7,0,1.044q.484.106.967.222,0-.51,0-1.021Zm-8.046-8.912q-.49-.119-.982-.223,0,.554,0,1.107.492.1.983.2c0-.363,0-.726,0-1.089Zm8.268,15.561q-.7-.157-1.392-.3,0,.752,0,1.5c.465.083.93.169,1.394.261q0-.734,0-1.469Zm-8.1-8.586q-.663-.138-1.327-.258,0,.746,0,1.493.665.109,1.329.234c0-.49,0-.98,0-1.469Zm8.384,15.167q-.967-.172-1.934-.328,0,1.042,0,2.084.969.133,1.937.281,0-1.019,0-2.037Zm-16.522-31.051c-.357-.07-.714-.131-1.072-.187q0,.622,0,1.243.537.078,1.073.174,0-.615,0-1.23Zm8.36,22.8q-.891-.155-1.783-.289,0,1,0,2,.892.119,1.785.256c0-.656,0-1.313,0-1.969ZM753.981,893.9c-.436-.074-.872-.14-1.308-.2,0,.505,0,1.01-.006,1.515.437.054.873.117,1.31.185q0-.75,0-1.5Zm8.528,22.423q-1.161-.16-2.322-.3,0,1.3,0,2.6,1.163.12,2.326.26c0-.854,0-1.707,0-2.56Zm-8.376-15.252q-.829-.12-1.66-.219,0,.959-.007,1.918.831.09,1.662.2,0-.949,0-1.9Zm16.614,23.155q-1.3-.174-2.591-.33,0,1.393,0,2.786,1.3.126,2.595.266,0-1.362-.006-2.722Zm-16.364-16.092q-1.1-.135-2.206-.243,0,1.271-.009,2.544,1.1.1,2.209.216c0-.839,0-1.678.007-2.517Zm8.453,14.969q-1.495-.156-2.989-.293,0,1.671-.005,3.342,1.5.111,2.993.239,0-1.643,0-3.287Zm-8.1-8.023q-1.478-.145-2.957-.264-.006,1.7-.013,3.4,1.48.1,2.96.228c0-1.122.005-2.244.009-3.366Zm-8.9-36.9q-.473-.058-.949-.093c0,.373,0,.746-.007,1.119q.475.034.95.088,0-.557.005-1.113Zm.018,7.419c-.355-.039-.71-.07-1.065-.094q0,.627-.008,1.253.533.035,1.067.088,0-.624.006-1.247Zm.1,7.325q-.676-.065-1.352-.105,0,.793-.009,1.587.677.038,1.353.1,0-.79.008-1.579Zm9.09,29.128c-1.21-.091-2.419-.171-3.629-.248q-.013,2.083-.016,4.166,1.816.093,3.633.2,0-2.06.012-4.122Zm-8.879-21.923q-.926-.076-1.852-.125-.007,1.085-.013,2.169.928.044,1.855.115.006-1.08.011-2.159Zm.35,7.048q-1.315-.092-2.63-.151c-.005,1.025-.009,2.049-.018,3.074q1.317.055,2.633.137.008-1.53.015-3.059Zm-1.449,75.976c-.191.011-.383.018-.574.023q0,.329,0,.657c.191-.006.383-.015.574-.026q0-.327,0-.654ZM786.3,903.482c-.195-.086-.39-.17-.586-.251q0,.281,0,.562.294.111.587.23c0-.18,0-.36,0-.54Zm.211,5.9q-.461-.174-.921-.337,0,.44.006.88.462.147.922.3,0-.424-.007-.848Zm-8.113-2.62c-.273-.088-.546-.174-.819-.256,0,.28,0,.56,0,.84q.41.11.82.231,0-.407,0-.815Zm8.356,8.48q-.66-.207-1.322-.4c0,.42.006.841.008,1.261q.662.172,1.324.354,0-.607-.01-1.214Zm-8.11-2.193q-.629-.17-1.258-.326c0,.429,0,.858,0,1.287q.63.138,1.26.288,0-.624-.006-1.249Zm8.4,8q-.9-.226-1.808-.437.006.86.012,1.721.905.181,1.81.374-.007-.828-.013-1.657Zm-8.1-1.774q-.9-.194-1.8-.372c0,.612,0,1.224.006,1.836q.9.152,1.8.318-.006-.891-.009-1.781Zm8.435,7.516q-1.2-.223-2.395-.432c0,.758.011,1.517.015,2.275q1.2.169,2.4.347-.009-1.1-.018-2.19Zm-8.089-1.36q-1.22-.2-2.44-.377.005,1.243.008,2.486,1.222.146,2.443.3c-.006-.8-.007-1.608-.012-2.412Zm8.487,7.016q-1.554-.192-3.109-.37.013,1.474.02,2.948,1.556.128,3.112.26c-.011-.946-.016-1.892-.023-2.837Zm-8.089-.937q-1.592-.17-3.185-.327c0,1.079.007,2.158.012,3.237q1.594.112,3.188.232c0-1.047-.012-2.095-.016-3.141Zm8.259,6.748q-1.681-.1-3.362-.2c.01,1.061.012,2.121.022,3.181l3.365.076q-.012-1.53-.025-3.062Zm-.239,6.189-2.791.008c.008.878.01,1.757.018,2.636q1.4-.052,2.795-.106-.011-1.269-.021-2.538Z" transform="translate(-669.743 -861.269)" fill="#0f0f0f" opacity="0.25"/>
              <g id="Group_51481" data-name="Group 51481" transform="translate(10.742)">
                <g id="Group_51480" data-name="Group 51480">
                  <path id="Path_64570" data-name="Path 64570" d="M822.384,1258.572l-.1,3.812,7.719,3.621,12.592-.929,14.478-9.25-11.922-2.21Z" transform="translate(-786.901 -1123.238)" fill="#9b0707"/>
                  <path id="Path_64571" data-name="Path 64571" d="M720.17,1158.17l-3.812,16.2L735.8,1185.3l1.271-9.276-3.431-13.342-9.53-5.845Z" transform="translate(-713.004 -1055.724)" fill="#e2cfcf"/>
                  <path id="Path_64572" data-name="Path 64572" d="M828.307,919.907c-.125-1.024-.3-2.118-.524-3.257L823.9,906.179l-.068-.115-.1-.168a79.694,79.694,0,0,1-7.055-13.917c-.133-.379-.188-.568-.188-.568l-21.6-8.641-3.685-3.939-2.8-4.7-8.832-.93h0l-.825-.087-.127-6.735s12.961-22.237-4.955-31c0,0-14.486-17.09-36.278-3.78,0,0-10.1,5.337-3.335,18.012l2.859,4.193a10.659,10.659,0,0,0,0,4.288,43.662,43.662,0,0,0,1.969,4.225l-.032,3.4s.032,2.637,1.3,3.844a3.639,3.639,0,0,1,1.112,2.764c.032.1,3.844,9.784,3.876,9.975s-2.541,4.257,1.366,4.289,5.782-.953,7.148.571,5.5,4.193,1.461,6l-.277.126q-.3.138-.611.29l-.1.05-.073.036-.1.05-.1.051q-.41.205-.837.429l-.107.056-.107.057q-.269.142-.541.289l-.187.1c-.265.144-.532.291-.8.44l-.2.113-.238.134-.22.124h0l-.217.123-.007,0-.212.121-.109.063-.1.059-.133.076-.3.176-.135.079-.185.108-.42.246-.149.087-.417.247-.148.088-.158.094-.138.082-.1.058-.1.057-.391.235-.143.087-.376.229-.085.052-.248.152-.2.12-.121.075-.006,0-.078.048-.067.041-.073.045c-.918.566-1.509.94-1.546.959l0,0-.006,0-.023.012-.008,0-.014.007-.015.008-.122.065-.039.021-.162.088-.051.028-.059.032-.121.067c-.225.125-.5.282-.813.466l-.063.038-.284.17-.049.03-.069.042q-.209.127-.43.266l-.143.09-.155.1-.076.049c-.177.115-.359.235-.542.359l-.237.162-.079.055-.11.077-.114.081q-.173.123-.347.251c-.087.065-.175.129-.261.2l-.12.091-.157.121-.112.088-.044.035-.084.068c-.085.068-.169.138-.253.207l-.122.1,0,0-.123.106q-.251.218-.487.442l-.1.1,0,0-.108.105-.049.049c-.043.044-.086.087-.128.131l-.046.048c-.086.09-.169.18-.249.271l-.058.066-.086.1-.047.056q-.163.2-.3.4l-.044.062-.047.069-.042.063-.048.074-.038.06-.008.013-.039.064-.042.073-.03.054-.022.041-.026.05-.029.057c-1.461,2.922-3.971,8.863-3.971,8.863l-3.78,11.309s.307.171.833.484c2.5,1.486,9.931,6.171,12.923,10.92,3.622,5.75,5.623,18.647,5.623,18.647l26.625.7,10.387-.169a16.687,16.687,0,0,0,16.374-15.5q.049-.71.039-1.435c-.053-3.548-.062-6.858.028-8.97l0-.043c0-.02,0-.04,0-.06,0-.08.008-.159.011-.236h0c0-.054.006-.107.008-.159v-.009c0-.031,0-.063.005-.093.005-.1.011-.187.018-.276,0-.017,0-.033,0-.05s0-.039,0-.058,0-.03,0-.045c0-.031.005-.062.007-.092l.006-.068c.022-.246.045-.457.073-.629,0-.017.005-.034.008-.051s.01-.055.014-.08l.008-.041a.748.748,0,0,1,.121-.331c.245-.245.374.822.805,2.677a30.439,30.439,0,0,0,9.622,16.472q1.331-1.058,2.637-2.149,1.559-1.3,3.083-2.643,1.133-1,2.244-2.022c.678-4.369,2.155-8.871,5.234-11.407a8.812,8.812,0,0,1,2.8-1.564A39.066,39.066,0,0,0,828.307,919.907Z" transform="translate(-721.827 -825.297)" fill="#f9bf8c"/>
                  <path id="Path_64573" data-name="Path 64573" d="M740.027,835.178c-.159.254-2.627,5.347-2.06,8.534a33.21,33.21,0,0,0,2.668,7.338s2.41-10.535,6.285-11.107,6.194-.794,6.194-.794L758.932,844s6.063,1.885,7.588,1.822a3.37,3.37,0,0,1,2.56,1.514l7.862,3.1,2.372.638,3.351,1.405s1.072.493,1.168.937a3.918,3.918,0,0,0,.286.826,14.675,14.675,0,0,1,1.207.89c0,.064.159,2.414-.572,2.382a27.565,27.565,0,0,1-3.367-1.112c.032.064.1,5.654-.858,7.5l2.51,6.957s1.112-.572,1.207-.953,1.779-5.4,1.779-5.4,5.432-12.326,3.018-17.376-3.431-8.736-9.371-11.182c0,0-9.117-10.07-23.285-8.132S740.027,835.178,740.027,835.178Z" transform="translate(-728.019 -826.022)" fill="#47271a"/>
                  <path id="Path_64574" data-name="Path 64574" d="M822.035,1032.673c-.054-.308-.12-.659-.2-1.049l-6.581-17.766-.067-.113-.1-.168a79.693,79.693,0,0,1-7.055-13.918c-.133-.379-.188-.568-.188-.568l-21.6-8.641-3.685-3.939-2.8-4.7-8.832-.93h0l-.353.223s.1,5.725-.948,8.489-4.866,12.1-4.866,12.1l-9.143,6.295-4,8.958-2.764-6.48-.381-9.149-2.278-.35q-.3.138-.611.29l-.1.05-.073.036-.1.05-.1.051q-.41.205-.837.429l-.107.056-.107.057q-.269.142-.541.289l-.187.1c-.265.144-.532.291-.8.44l-.2.113-.238.134-.22.124h0l-.216.123-.008,0-.212.121-.109.063-.1.059-.133.076-.3.176-.135.079-.184.108-.42.246-.149.087-.417.247-.148.088-.157.094-.138.083-.1.058-.1.058-.391.235-.143.087-.376.229-.085.052-.167.1-.082.05-.2.12-.121.075-.006,0-.078.048-.067.041-.073.045c-.918.566-1.509.941-1.546.959l0,0-.006,0-.022.012-.008,0-.014.007-.015.008-.122.064-.039.021-.163.088-.051.028-.059.032-.121.067c-.225.125-.5.282-.814.466l-.063.038-.284.17-.049.03-.069.042q-.209.127-.43.266l-.143.09-.155.1-.076.049c-.178.115-.359.235-.542.359l-.237.162-.079.055-.11.078-.114.081q-.173.123-.347.251c-.087.064-.175.129-.261.2l-.12.091-.157.121-.112.088-.044.035-.084.068q-.127.1-.253.207l-.122.1,0,0-.123.106q-.251.218-.488.442l-.1.1,0,0-.108.105-.049.049c-.043.044-.086.087-.128.131l-.046.048c-.086.09-.169.18-.249.271l-.058.066-.086.1-.047.056q-.162.2-.3.395l-.044.062-.047.069-.042.063-.048.074-.038.06-.008.013-.039.064-.042.073c-.011.018-.02.036-.03.054l-.022.041-.026.05-.029.057c-1.461,2.922-3.971,8.863-3.971,8.863l-7.529,21.157.148-.043c1.5-.43,13.954-3.8,17.355,1.6,3.622,5.75,5.623,18.647,5.623,18.647l26.624.7a27.28,27.28,0,0,0,26.828-26.074l0-.043c0-.02,0-.04,0-.061,0-.08.008-.158.011-.236h0c0-.054.006-.107.008-.159v-.009c0-.031,0-.063.005-.094q.008-.143.018-.276c0-.017,0-.033,0-.05s0-.039,0-.058,0-.03,0-.045c0-.031.005-.062.007-.092s0-.046.006-.068c.021-.246.045-.457.073-.629,0-.017.005-.034.008-.051s.01-.055.014-.08l.008-.04a.742.742,0,0,1,.121-.331.153.153,0,0,1,.029-.023l.014-.007a.065.065,0,0,1,.062.007l.009.006.009.008.009.009a.276.276,0,0,1,.035.05.141.141,0,0,1,.009.016l.009.017.009.018,0,.009.008.019.006.014.009.023.009.024.009.025.009.027q.049.15.1.375c.005.02.01.041.015.062l.015.065c.01.042.02.086.03.131l.037.165c.007.03.014.062.02.093q.041.192.088.41c.008.037.017.076.025.114l.027.128c.019.086.038.176.059.268l.015.069.064.287.034.149c.009.039.018.078.027.118h0q.04.172.083.351c.013.054.026.108.04.163q.042.174.089.354l.028.107q.133.517.3,1.09l.042.144c0,.005,0,.01,0,.015l.039.13c.029.1.059.2.09.294.015.049.031.1.047.15l.007.021.041.129q.093.292.2.594l.011.033c.035.1.07.2.107.307.018.053.037.107.057.16s.034.094.051.142a.18.18,0,0,0,.007.02c.02.054.039.108.06.163l.061.164.063.165q.05.131.1.263l.028.07.062.155.005.012.069.169.067.161,0,.01c.047.111.094.223.142.336q.151.348.315.7c.027.059.054.117.082.177s.053.112.08.168.059.124.09.186l.087.179.089.179c.022.044.044.089.068.133l.027.054.024.047.065.126q.1.193.2.388l.076.141c.039.072.078.144.119.216l.076.137.026.045.094.165q.215.375.447.754.048.079.1.158l.025.041.1.16.108.169q.065.1.132.2l.123.187q.261.393.542.786l.078.109q.6.827,1.284,1.654l.092.109q.218.259.447.518l.087.1c.045.051.09.1.137.152l.084.093.143.156.113.121q.408.438.847.87l.179.175.074.071.1.091.119.112.1.091q.194.182.394.362l.1.09.1.09.092.082.062.053q1.331-1.058,2.637-2.148,1.559-1.3,3.082-2.643c.96-.845,2.3-.477,3.234-1.352.309-.29,2.553-.659,2.858-.953.855-3.109,3.583-4.13,5.4-6.494,1.325-1.726.349-6.155,2.351-6.83C823.475,1034.29,822.2,1033.621,822.035,1032.673Z" transform="translate(-713.18 -932.978)" fill="#e2cfcf"/>
                  <path id="Path_64575" data-name="Path 64575" d="M832.512,1022.607c-1.377,1.276-2.7,2.617-3.987,3.977a83.832,83.832,0,0,0-5.508,6.447,27.815,27.815,0,0,0-3.888,6.253,30.318,30.318,0,0,0-1.874,7.188c-.185,1.246-.285,2.5-.461,3.749-.186,1.318-.428,2.627-.591,3.949-.063.512-.11,1.023-.136,1.535a15.508,15.508,0,0,0,.047,2.311,21.54,21.54,0,0,0,.9,3.9c.06.206.12.411.179.618.13.455.254.913.359,1.374.148.646.23,1.3.328,1.954.006.038.012.075.018.113a29.1,29.1,0,0,0,.185,3.082v0a19.818,19.818,0,0,1-16.687,21.7l-12.262,1.9-13.181,1.854s-13.765-7.457-13.764-8.207c.006-5.35.151-11.863-.979-14.994-.073-3.17-1.069-6.092-1.53-9.229-.289-1.967-.628-3.929-.969-5.887-.349-2.006-.73-4.007-1.2-5.987a44.045,44.045,0,0,0-1.676-5.508c-.582-1.516-1.065-3.067-1.584-4.6-.4-1.193-.823-2.409-1.313-3.594a11.588,11.588,0,0,1,3.315-3.375c.818-.6,1.65-1.138,2.351-1.562,1-.608,1.74-.987,1.784-1.009.124-.062,6.531-4.161,10.588-6.037l2.056.316c-.032.017-.063.034-.092.051a4.08,4.08,0,0,0-.364.24c-.048.034-.117.025-.169.062a.19.19,0,0,0-.068.085,5.07,5.07,0,0,0-.808.481c-.43.3-.842.62-1.244.953a24.616,24.616,0,0,0-2.8,2.711,9.388,9.388,0,0,0-1.906,2.912,2.316,2.316,0,0,0-.135,1.239,2.105,2.105,0,0,0,.97,1.179c.416.308.859.58,1.264.9a8.541,8.541,0,0,1,1.157,1.183,32.108,32.108,0,0,1,2.084,2.772c.472.694.92,1.4,1.34,2.123a8.1,8.1,0,0,0,.613.941,1.224,1.224,0,0,0,.656.514c.621.113.9-.519,1-1.02a8.438,8.438,0,0,0,.1-1.785c-.023-1.714-.371-3.415-.474-5.125l1.807,4.237c-.009.048-.018.1-.028.143a.152.152,0,0,0,.132.18,3.747,3.747,0,0,0,.366,1.742,1.175,1.175,0,0,0,1.512.4,5.745,5.745,0,0,0,2.282-1.749c.673-.761,1.283-1.572,1.966-2.325a14.189,14.189,0,0,1,5.082-3.452,27.145,27.145,0,0,1,2.991-1.047,12.682,12.682,0,0,1,3.394-.588,6.214,6.214,0,0,1,1.686.2,5.485,5.485,0,0,1,1.194.527,9.415,9.415,0,0,0,2.285,1.113,2.173,2.173,0,0,0,2.183-.736,19.041,19.041,0,0,0,1.852-2.56,34.137,34.137,0,0,0,2.875-5.769q.588-1.5,1.064-3.034c.3-.974.518-1.984.905-2.929a18.686,18.686,0,0,1,3.312-4.895l.452-.526Z" transform="translate(-738.516 -956.214)" fill="#9b0707"/>
                  <path id="Path_64576" data-name="Path 64576" d="M809.341,1165.375c-.118.2-.023,4.239-.023,4.239l-5.623.826,1.4,21.951,16.233-.794-1.239-21.379-4-1.049-.762.159-.381-4.479-5.6.526Z" transform="translate(-773.929 -1061.313)" fill="#aaa"/>
                  <path id="Path_64577" data-name="Path 64577" d="M1030.465,1074.808c.077.39.269.74.323,1.049.167.948,4.806,5.1,4.806,5.1-1.08,2.891-8.837,9.071-10.161,10.8-.066-.475-.134-11.61-.2-12.077a148.919,148.919,0,0,0-8.043-31.595c-1.282-3.324-2.179-5.152-2.24-5.294l1.2.06C1016.692,1044.377,1030.465,1074.808,1030.465,1074.808Z" transform="translate(-921.298 -976.161)" fill="#fff"/>
                  <path id="Path_64578" data-name="Path 64578" d="M906.138,985.674s3.494,5.337,3.113,8.7-8.386,18.17-8.386,18.17l3.177,2.351,6.1-12.071,2.8-9.657S911.412,984.721,906.138,985.674Z" transform="translate(-841.715 -936.27)" fill="#fff"/>
                  <path id="Path_64579" data-name="Path 64579" d="M951.841,1015.065l8.005,8.45s-10.864,12.2-8.2,25.35c0,0,5.21-21.03,16.392-24.905l.064-2.35-19.759-8.45Z" transform="translate(-874.838 -955.495)" fill="#996161"/>
                  <path id="Path_64580" data-name="Path 64580" d="M816.406,889.845c.1.1,2.828,2.7,2.828,2.7l8.577,2.923.858.508,2.541-2.287-10.833-4.066-3.971.222Z" transform="translate(-782.797 -869.316)" fill="#383838"/>
                  <path id="Path_64581" data-name="Path 64581" d="M879.435,912.523l.54,2.383.159.762,3.177,1.08a.938.938,0,0,0,.794-.858c.064-.762.032-1.683.032-1.683Z" transform="translate(-826.766 -885.292)" fill="#383838"/>
                  <path id="Path_64582" data-name="Path 64582" d="M873.868,905.065c.1.064,1.271,1.842,1.271,1.842l3.78,1.62-.476-1.589-4.574-1.874" transform="translate(-822.882 -880.089)" fill="#848484"/>
                  <path id="Path_64583" data-name="Path 64583" d="M818.717,890.227l4.352,1.3,8.958,3.367.985-.7-10.928-3.876s-2.891-.477-3.367-.1" transform="translate(-784.409 -869.635)" fill="#848484"/>
                  <path id="Path_64584" data-name="Path 64584" d="M880.068,912.6c.032,0,3.3,1.588,3.3,1.588a2.469,2.469,0,0,1,.063,1.715s.9-.8.942-1.165.106-.868.106-.868-.349-.381-.413-.445-4.32-1.747-4.32-1.747Z" transform="translate(-826.985 -884.706)" fill="#848484"/>
                  <path id="Path_64585" data-name="Path 64585" d="M886.766,1178.393l-12.262,1.9c31.471-16.839,26-39.835,25.952-40.024l.984,3.067,1.176,3.667-.053,3.163-.074,4.461a12,12,0,0,1,.964,2.061v0A19.818,19.818,0,0,1,886.766,1178.393Z" transform="translate(-823.325 -1044.168)" fill="#441919"/>
                  <path id="Path_64586" data-name="Path 64586" d="M808.737,920.822s.032,7.751-6.512,11.595C802.225,932.417,811.628,929.685,808.737,920.822Z" transform="translate(-772.904 -891.081)" fill="#ffe5d2"/>
                  <path id="Path_64587" data-name="Path 64587" d="M777.534,984.841s-.349-4.352,8.26-1.938,2.351,4.574,2.351,4.574l-6.131,2.954-3.367-1.874Z" transform="translate(-755.678 -933.88)" fill="#ad6f45"/>
                  <path id="Path_64588" data-name="Path 64588" d="M913.583,1132.6s-3.336,13.056-19.441,24.3c0,0,15.337-4.578,21.63-17.251Z" transform="translate(-837.025 -1038.816)" fill="#441919"/>
                  <path id="Path_64589" data-name="Path 64589" d="M952.558,1194.577l-7.646,17.852,15.483-8.968Z" transform="translate(-872.442 -1082.052)" fill="#441919"/>
                  <path id="Path_64590" data-name="Path 64590" d="M882.015,1017.318s-10.165,6.735-12.707,31.258l-7.433-7.116s-6.1,13.977-10.865,15.057l-4.13,7.5-2.637-.317,6.258-13.152,8.831-17.027,5.972,2.224s4.7-18.361,9.085-20.9C874.391,1014.84,880.871,1016.238,882.015,1017.318Z" transform="translate(-802.217 -956.668)" fill="#441919"/>
                  <path id="Path_64591" data-name="Path 64591" d="M852.172,979.334l4.892.826s3.494,3.685,1.97,7.687c0,0-4.066,14.3-13.342,19.7s-12.9,11.627-12.9,11.627l.635-7.243,5.21-6.734,4.447-1.716A29.332,29.332,0,0,0,852.172,979.334Z" transform="translate(-794.229 -931.899)" fill="#aa8383"/>
                  <path id="Path_64592" data-name="Path 64592" d="M833.844,1098.58l5.972-13.405,6.607-7.116,1.842-.191-1.461,3.685-12.326,21.03-.635-4" transform="translate(-794.962 -1000.636)" fill="#441919"/>
                  <path id="Path_64593" data-name="Path 64593" d="M823.339,986.506a27.018,27.018,0,0,1,3.368,16.455s5.21-6.227,5.464-9.276-1.112-8.545-1.112-8.545,3.971,1.684,4.479,11.785l2.541-4.13s2.351-6.29,1.906-10.928-3.685-12.2-3.685-12.2Z" transform="translate(-787.633 -925.156)" fill="#ad6f45"/>
                  <path id="Path_64594" data-name="Path 64594" d="M861.019,914.277s-4.85-2.3-4.437,4.214,4.458,3.134,4.458,3.134l.688-3.23.064-2.287-.773-1.832" transform="translate(-810.806 -886.241)" fill="#ad6f45"/>
                  <path id="Path_64595" data-name="Path 64595" d="M858.739,935.619a6.086,6.086,0,0,0,1.715,3.717s-.7-2.8.254-3.145S858.93,934.443,858.739,935.619Z" transform="translate(-812.328 -901.081)" fill="#ad6f45"/>
                  <path id="Path_64596" data-name="Path 64596" d="M754.153,879c.032-.1,4.543-8.545,8.641-7.338s4.987,2,4.987,2a13.781,13.781,0,0,0,6.226,6.925s4.384,4.384-3.018,12.675a7.215,7.215,0,0,0,4-1.747,6.31,6.31,0,0,1-.889,3.336s3.971-1.239,4.892-3.494a24.305,24.305,0,0,0,1.366-5.686c0-.286-2.541-9.212-2.541-9.212l-2.764-.889-2.7-1.557-1.525-1.652,3.526-.223-.826-.731s-4.924-.953-6.131-2.1-2.955-5.527-6.036-4.511-7.179,4.162-7.179,4.162-4.066,8.386-2.541,9.657S754.153,879,754.153,879Z" transform="translate(-737.38 -851.892)" fill="#ad6f45"/>
                  <path id="Path_64597" data-name="Path 64597" d="M797.708,841.337s10.451,4.352,11.118,12.421l2.033,3.113,7.529,2.573,2.732.762,1.461.667,2.481.99.951,1.171s-.508-20.3-20.807-22.364c0,0,3.987,1.191,5.607,3a16.875,16.875,0,0,1,2.668,4.956S805.348,842.624,797.708,841.337Z" transform="translate(-769.753 -835.167)" fill="#331c13"/>
                  <path id="Path_64598" data-name="Path 64598" d="M761.663,1089.016l3.463,12.167s1.43-19.187-.572-26.684a62.2,62.2,0,0,0-3.907-11.214s3.653,2.446,6.354,8.641a9.286,9.286,0,0,0,1.652-2.446s3.629,14.519,7.437,17.012l-1.084-4.305-3.971-19.854-5.369-2.319,7.052-8.2s-3.78.476-5.019,1.525-12.326,9.149-12.326,9.149Z" transform="translate(-740.22 -982.463)" fill="#441919"/>
                  <path id="Path_64599" data-name="Path 64599" d="M746.918,1142.3l9.975,5.781s-4.134-25.552-8.433-35.244l-3.173-13.278-3.61,5.764-1.97,14.39,4.066-8.926,1.092,1.923c3.817,6.723,4.956,13.155,4.39,20.865C749,1137.008,748.312,1140.114,746.918,1142.3Z" transform="translate(-729.292 -1015.768)" fill="#aa8383"/>
                  <path id="Path_64600" data-name="Path 64600" d="M807.791,1067.265a23.473,23.473,0,0,0,2.923-4.733l-1.017,9.276s-1.938-4.574-1.906-4.543" transform="translate(-776.787 -989.938)" fill="#aa8383"/>
                  <path id="Path_64601" data-name="Path 64601" d="M1018.519,1052.132" transform="translate(-923.79 -982.682)" fill="#ad6f45"/>
                  <path id="Path_64602" data-name="Path 64602" d="M974.089,1103.255l.446-.35q.794-.625,1.578-1.263a17.181,17.181,0,0,1-.386-12.894c9.943-11.786,8.927-18.52,8.927-18.52-2.033,6.671-10.96,13.247-10.96,13.247-4.828-21.316,5.464-34.022,5.464-34.022-15.756,5.21-17,27.574-17.154,27.764s-.159,13.088-.159,13.088C964.635,1097.056,970.206,1101.123,974.089,1103.255Z" transform="translate(-884.255 -980.814)" fill="#aa8383"/>
                  <path id="Path_64603" data-name="Path 64603" d="M828.034,1181.356l.985,17.122-7.465,3.209,12.135-.254-1.144-21.03-4.511-.953Z" transform="translate(-786.388 -1071.499)" fill="#727272"/>
                  <path id="Path_64604" data-name="Path 64604" d="M805.715,1207.525l12.2,2.509-.222-4.479-12.262.731Z" transform="translate(-775.139 -1089.71)" fill="#727272"/>
                  <path id="Path_64605" data-name="Path 64605" d="M809.263,1081.735l3.78,21.569,5.94-.032.445,2.16,16.011-28.781-3.812-.254-15.185,25.286-1.715-12.135Z" transform="translate(-777.814 -999.611)" fill="#d34100"/>
                  <path id="Path_64606" data-name="Path 64606" d="M763.621,929.856s2.913,2.525-.024,7.911a3.279,3.279,0,0,0-.065,3.037,2.352,2.352,0,0,0,.152.265l-1.3-.381-.858-1.525a4.193,4.193,0,0,1,.413-2.383,25.186,25.186,0,0,0,1.62-2.446S764.638,931.508,763.621,929.856Z" transform="translate(-744.497 -897.383)" fill="#ffe5d2"/>
                  <path id="Path_64607" data-name="Path 64607" d="M775.771,915.28s-.413,1.27,1.493,3.653c0,0,1.017-5.178,8.005-2.986,0,0-1.715-2.6-4.066-2.827S775.771,915.28,775.771,915.28Z" transform="translate(-754.423 -885.697)" fill="#ad6f45"/>
                  <path id="Path_64608" data-name="Path 64608" d="M757.634,926.494s-.794,1.874.826,2.383l-1.556,1.366-.7-1.144-.1-1.143Z" transform="translate(-740.734 -895.038)" fill="#ad6f45"/>
                  <path id="Path_64609" data-name="Path 64609" d="M781.845,923.451s.858-4.1,6.258-2.573C788.1,920.878,787.5,923.26,781.845,923.451Z" transform="translate(-758.687 -890.883)" fill="#fff4ee"/>
                  <path id="Path_64610" data-name="Path 64610" d="M762.168,934.588s-1.271-.635-2.383,1.493c0,0,2.065,1.144,2.478-.858C762.263,935.224,762.581,934.779,762.168,934.588Z" transform="translate(-743.298 -900.622)" fill="#fff4ee"/>
                  <g id="Group_51479" data-name="Group 51479" transform="translate(2.287)">
                    <g id="Group_51478" data-name="Group 51478">
                      <path id="Path_64611" data-name="Path 64611" d="M762.466,935.386a2.113,2.113,0,0,0-.674.523A.81.81,0,0,1,762.466,935.386Z" transform="translate(-746.985 -901.241)" fill="#070707"/>
                      <path id="Path_64612" data-name="Path 64612" d="M859.41,1079.435l-15.376,28.646c-.116.006-.217.014-.3.021l-.132-1.6-.043-.789,14.206-26.569A11.033,11.033,0,0,1,859.41,1079.435Z" transform="translate(-804.027 -1001.525)" fill="#070707"/>
                      <path id="Path_64613" data-name="Path 64613" d="M863.411,915.858c.572,2.6-1.366,5.972-1.366,5.972l-.286,2.954a7.4,7.4,0,0,1-.477-2.922c.254-.826,2.51-5.019.858-6.131s-1.938,2.351-1.938,2.351-1.271-2.827,1.429-3.812c0,0-2.827-1.08-3.208,3.3,0,0-.889-3.336,2.287-4.161A2.7,2.7,0,0,1,863.411,915.858Z" transform="translate(-814.315 -885.91)" fill="#070707"/>
                      <path id="Path_64614" data-name="Path 64614" d="M827.478,1169.5l.085,1.031-7.029.579-.129-1.572-.177-2.15h0l-.267-3.243.239-.02.052.274.436.081.219-.018.489-.041.19-.277-.028-.132,1.04-.086.02.107,2.351-.286.01-.017,2.01-.166.151,1.829.086,1.6.03.561.054-.1Zm-1.569.07-.4-4.832-4.672.385.4,4.832Z" transform="translate(-787.564 -1060.416)" fill="#070707"/>
                      <path id="Path_64615" data-name="Path 64615" d="M844.138,1174.856c.082-.007.182-.015.3-.021l-.26.486Z" transform="translate(-804.43 -1068.28)" fill="#070707"/>
                      <path id="Path_64616" data-name="Path 64616" d="M844.033,1174.9l.038.465-.054.1-.03-.561Z" transform="translate(-804.324 -1068.328)" fill="#070707"/>
                      <path id="Path_64617" data-name="Path 64617" d="M843.834,1171.212l-.046,0-.086-1.6Z" transform="translate(-804.125 -1064.636)" fill="#070707"/>
                      <path id="Path_64618" data-name="Path 64618" d="M835.48,1104.781h-.012c-.025-.166-.245-1.635-.454-3.248l12.819-21.837.312-.154a5.877,5.877,0,0,1,2.1-.481Z" transform="translate(-798.065 -1001.469)" fill="#070707"/>
                      <path id="Path_64619" data-name="Path 64619" d="M831.055,1164.131l-2.351.286-.02-.106,2.364-.195.007.014Z" transform="translate(-793.649 -1060.802)" fill="#070707"/>
                      <path id="Path_64620" data-name="Path 64620" d="M834.1,1156.621l-1.042-2.24.592-1.008c.209,1.613.429,3.082.454,3.248Z" transform="translate(-796.699 -1053.307)" fill="#070707"/>
                      <path id="Path_64621" data-name="Path 64621" d="M749.778,922.537l-.592,1.008,1.042,2.24-2.364.195-2.077-11.234a49.707,49.707,0,0,0-2.919-7.489,25.9,25.9,0,0,0-1.517-2.666,14.383,14.383,0,0,0-1.5-1.947c-.6-.667-5.622-2.256-5.622-2.256l6.8-7.37c-4.161,2.383-13.946,9.943-13.946,9.943,4.574,8.418,6.735,30.56,6.735,30.56-.6-1.906-8.7-23.444-8.7-23.444-2.175,3.593-12.2,25.051-12.278,25.143.67-.9,10.483-30.242,10.705-32.148a5.314,5.314,0,0,1,.927-2.032,13.013,13.013,0,0,1,5.232-4.545c5.872-2.818,13.569-8.64,13.569-8.64-5.13-3.256-3.955.746-3.955.746-6.671-2.382-7.02-5.242-7.783-6.8s.444-3.335-1.4-6.639-1.048-7.56-1.048-7.56-.731-.6-2.16-1.874.6-5.083.572-5.5-.635-1.112-1.493-2-1.016-4.924-1.016-4.924-6.9-5.55-5.019-16.964c2.319-14.073,23.6-14.5,28.352-13.58,5.432,1.048,10.387,2.287,14.581,8.672,0,0,12.024,3.256,10.117,19.838,0,0-1.3,7.275-4.161,11.309a23.037,23.037,0,0,0,.167,6.043c.776.052,5.724.387,7.362.533a4.487,4.487,0,0,1,2.922,1.874l3.208,6.607,20.76,8.533a8.708,8.708,0,0,1,4.736,4.726l12.831,32.882-15.55-31.846c-12.6,6.9-14.031,20.457-13.638,28.49a74.532,74.532,0,0,1-1.052,16.729l-.351,1.971c-13.056-35.833,11.738-49.35,11.738-49.35l-17.6-8.164s-5.464,8.863-6,9.911-4.606,11.595-4.606,11.595a16.558,16.558,0,0,0-5.562-2.738,11.046,11.046,0,0,0-1.643-.292,9.223,9.223,0,0,0-1.562-.024,5.874,5.874,0,0,0-2.1.481l-.312.154a63.092,63.092,0,0,0-7.757,4.421c-2.383,1.811-5.273,12.008-5.432,13.088A29.057,29.057,0,0,0,749.778,922.537Zm24.377-28.662c.35-.953,5.782-11.944,5.782-12.929s-2.1-6.226-3.208-7.815-6.83-1.525-6.83-1.525l-.094.073a4.492,4.492,0,0,0,.7,1.388c.635.7.254,2.414.254,2.414-3.653,13.723-11.15,19.7-11.15,19.7a14.727,14.727,0,0,0-4.7,1.906c-.284.252-4.7,9.6-4.764,9.751a29.061,29.061,0,0,1,9.783-8.957c6-2.1,12.23,1.716,12.23,1.716S773.806,894.829,774.155,893.875Zm-5.464-37.389s7.275-15.82-7.021-23.221c0,0-10.165-13.12-28.273-6.163-11.411,4.384-12.679,10.963-12.056,15.23.49-2.406,1.911-6.934,6.273-9.479a13.727,13.727,0,0,0-4.764,11.626,13.251,13.251,0,0,1,8.259-10.674s3.431-1.048,8.768,3.526,6.925,4.034,6.989,4,2.351-.7,4.193-4.193a7.346,7.346,0,0,0,2.732,6.957,7.988,7.988,0,0,1-.508-5.909,9.2,9.2,0,0,0,4.892,7.592,14.543,14.543,0,0,1-1.493-7.751s.508,8.037,9.625,11.023l.508,1.3s1.175.572,1.366,1.017c0,0,.953,2.192-.985,3.018l-.413-.032-2.51-.794a27.037,27.037,0,0,1-.159,5.051c-.35,1.811.063,2.319.063,2.319a12.315,12.315,0,0,1,.635-2.637c.445-1.08,1.144-2.573.985-3.653,0,0,.794-.063-.477,5.527a7.03,7.03,0,0,0,.6,3.876A41.853,41.853,0,0,1,768.691,856.486Zm-1.652-3.081a1.822,1.822,0,0,0,.35-1.747l-3.844-1.81a7.669,7.669,0,0,1,.635,2.637Zm-1.048-3.3-.223-.6-3.59-1.588a7.159,7.159,0,0,1,.921,1.112Zm-10.038,44.378s16.551-11.023,6.163-31.894c0,0-.54,2.541-2.224,2.478,0,0,1.461-1.239.826-3.907a20.338,20.338,0,0,1,1.715-2.383c.667-.7,2.51-6.067-.508-9.911s-5.782,2.478-5.782,2.478a3.305,3.305,0,0,1-.381-1.906s-1.842,4.193-.667,7.116,2.446,7.751,4,9.625.731,13.183-13.691,19.314c0,0,3.748,6.861,1.62,14.486,0,0,10.26-3.558,6.926-17.535C753.99,882.5,756.773,886.907,755.953,894.479Zm2.033-47.46-8.958-3.272-.921-.222a1.568,1.568,0,0,1-.413,1.684l.7.381,8.037,2.923S757.255,847.274,757.986,847.02Zm-5.337,10.96a17.674,17.674,0,0,0-2.319-10.42l-3.971-1.747-3.653-3.272,4.13-.159s-5.083-.508-5.464-.73c-.308-.18-4.194-3.521-5.666-4.79a1.67,1.67,0,0,0-1.383-.378,7.887,7.887,0,0,0-6.833,6.661s-.6,4.034-.1,5.94-1.334,5.146-1.334,5.146l.064.445c1.08-.317,1.3-1.684,1.3-1.684s.858.89-.794,2.478a1.524,1.524,0,0,0,.381,1.557,2.458,2.458,0,0,1,2.51-.985l-.127.413a1.785,1.785,0,0,0-1.085.163.81.81,0,0,0-.674.523,2.841,2.841,0,0,0-.305.425,7.909,7.909,0,0,1,1.144,2.954,6.807,6.807,0,0,0,1.207-5.559s2.128,2.1-1.017,6.925c0,0-1.112,2.287-.191,3.177s1.207.858,1.4,1.271a3.572,3.572,0,0,1,.254.889s2.922-3.145,11.309.858c0,0,1.461.508,1.97-.1a17.309,17.309,0,0,1,5.432-4.352s4.479-3.367,2-10.737C750.838,852.9,752.236,854.04,752.649,857.979Zm-5.718-13.12a2.1,2.1,0,0,0,.508-1.493l-2.573-.286Zm-1.049,63.31c-.508-1.47-.857-15.6-.857-15.6a20.228,20.228,0,0,1-6.163,7.084,13.172,13.172,0,0,1,2.7.159C742.319,900.037,745.827,908.044,745.882,908.169Zm-6.321-33.862c.191-.445,1.048-.159,1.048-.159-.921-3.463-2.192-4.352-2.192-4.352-6.544-3.431-7.179.667-7.179.667a7.84,7.84,0,0,0,2.1,6.036,3.166,3.166,0,0,0,.794-.921c.349-.6-.508-2-.508-2,1.239-1.747,2.8-.063,2.8-.063a.631.631,0,0,0-.889.318l1.461,2.223A4.136,4.136,0,0,0,739.561,874.307Z" transform="translate(-712.829 -822.473)" fill="#070707"/>
                      <path id="Path_64622" data-name="Path 64622" d="M823.732,1165.043l.028.132-.19.277-.489.04,0-.047.318-.374Z" transform="translate(-789.738 -1061.449)" fill="#070707"/>
                      <path id="Path_64623" data-name="Path 64623" d="M822.495,1165.134l-.318.374-.39-.316Z" transform="translate(-788.838 -1061.513)" fill="#070707"/>
                      <path id="Path_64624" data-name="Path 64624" d="M821.454,1165.643l0,.047-.219.018-.436-.081-.052-.274.313-.026Z" transform="translate(-788.115 -1061.648)" fill="#070707"/>
                      <path id="Path_64625" data-name="Path 64625" d="M805.8,1177.368c-.914.044-4.478.316-4.617,1.866a29.513,29.513,0,0,0,.222,4.8l14.613-1.176-.318-4.86a3.79,3.79,0,0,0-2.828-.666l-.168-2.039.26-.486c1.126-.058,3.721.005,4.8,1.7l1.62,22.936L800.9,1200.9l-1.874-23.793s.523-1.478,6.6-1.887h0Zm10.949,19.528-.6-12.326-14.708,1.048.858,12.453Z" transform="translate(-772.956 -1068.249)" fill="#070707"/>
                      <path id="Path_64626" data-name="Path 64626" d="M807.145,1094.026a25.885,25.885,0,0,1,1.517,2.666l3.956,18.81-.338.027-.708.059-.313.026Z" transform="translate(-778.623 -1011.908)" fill="#070707"/>
                      <path id="Path_64627" data-name="Path 64627" d="M783.494,911.073c-3.272-.508-8.514,2.573-9.371,2.605s-1.017-1.811-1.048-1.906c0,0,.508.508.7.508s-.022-.243-.031-.254a1.226,1.226,0,0,0,.6.095c.349-.032,3.24-1.112,3.24-1.112C781.714,909.548,783.494,911.073,783.494,911.073Z" transform="translate(-754.856 -883.794)" fill="#070707"/>
                      <path id="Path_64628" data-name="Path 64628" d="M788.324,919.552a5.96,5.96,0,0,0-2.61-.079,1.175,1.175,0,0,0-1.985.688,6.76,6.76,0,0,0-1.725,1.71S782.7,916.5,788.324,919.552Z" transform="translate(-761.085 -889.542)" fill="#070707"/>
                      <path id="Path_64629" data-name="Path 64629" d="M789.671,921.452a1.175,1.175,0,1,1-1.985.688,9.114,9.114,0,0,1,1.864-.641C789.589,921.482,789.629,921.466,789.671,921.452Z" transform="translate(-765.042 -891.52)" fill="#070707"/>
                      <path id="Path_64630" data-name="Path 64630" d="M788.874,920.349a1.17,1.17,0,0,1,.82.334,1.286,1.286,0,0,0-.121.048,9.115,9.115,0,0,0-1.864.641A1.176,1.176,0,0,1,788.874,920.349Z" transform="translate(-765.065 -890.751)" fill="#070707"/>
                      <path id="Path_64631" data-name="Path 64631" d="M782.082,981.157s-4.034-.794-4.892,1.4c0,0-1.048,0-.826-.889C776.364,981.665,778.27,978.933,782.082,981.157Z" transform="translate(-757.129 -932.562)" fill="#070707"/>
                      <path id="Path_64632" data-name="Path 64632" d="M784.064,953.019s1.843,1.461.222,2.7c0,0,.254-.858-.032-.762s-.381-.286-.222-.413S784.763,954.289,784.064,953.019Z" transform="translate(-762.447 -913.541)" fill="#070707"/>
                      <path id="Path_64633" data-name="Path 64633" d="M773.886,958.136s-.826.889-1.556.477a2.5,2.5,0,0,1-.54-.54s-.191-.381-.921.159C770.868,958.232,771.98,956.516,773.886,958.136Z" transform="translate(-753.317 -916.626)" fill="#070707"/>
                      <path id="Path_64634" data-name="Path 64634" d="M762.434,935.371a.81.81,0,1,1-.759.528,2.113,2.113,0,0,1,.674-.523A.811.811,0,0,1,762.434,935.371Z" transform="translate(-746.868 -901.23)" fill="#070707"/>
                    </g>
                  </g>
                  <path id="Path_64635" data-name="Path 64635" d="M873.132,863.991a.115.115,0,0,0,.025.014l.026.012.054.021.109.04.218.082c.145.057.29.115.433.178s.284.129.425.2.279.143.417.217a11.329,11.329,0,0,1,1.572,1.047q.185.148.366.3c.12.1.237.21.353.319q.348.325.667.681a11.336,11.336,0,0,1,1.155,1.521c.043.067.085.135.126.2s.083.136.122.206l.117.208c.039.07.076.141.113.211.147.283.285.571.406.866s.234.592.329.9c.05.151.094.3.137.456.021.076.04.154.06.23s.039.153.056.231a11.188,11.188,0,0,1,.268,1.87l.011.235q0,.118.005.235c0,.156,0,.313,0,.469l0,.117-.006.117-.015.234c-.012.155-.029.311-.048.465-.035-.153-.063-.3-.1-.456l-.048-.227-.023-.113-.025-.112c-.017-.075-.034-.15-.05-.225s-.035-.149-.053-.224l-.052-.223-.057-.221q-.224-.885-.524-1.732a15.892,15.892,0,0,0-1.551-3.2,15.508,15.508,0,0,0-1.037-1.445q-.28-.346-.579-.68c-.1-.111-.2-.219-.3-.328s-.207-.216-.313-.322c-.423-.426-.871-.83-1.338-1.22-.233-.2-.473-.385-.716-.573-.122-.094-.244-.187-.368-.28l-.185-.142-.092-.072c-.015-.013-.03-.025-.045-.038l-.022-.02A.125.125,0,0,1,873.132,863.991Z" transform="translate(-822.369 -851.436)" fill="#070707"/>
                  <path id="Path_64636" data-name="Path 64636" d="M772.864,849.758a3.026,3.026,0,0,1,.474-.246l.125-.051.126-.046c.084-.033.171-.056.257-.084a6.22,6.22,0,0,1,1.062-.212c.09-.009.18-.017.271-.025s.181-.008.272-.013l.137-.005c.045,0,.091,0,.136,0l.273,0c.046,0,.091.005.136.008l.136.01.136.011c.045,0,.091.007.136.013l.271.035.136.018c.045.007.089.017.134.025a9.047,9.047,0,0,1,1.063.255l.261.082.13.041c.043.015.085.032.128.047.169.065.341.127.509.2l.5.223c.083.036.162.081.243.122l.241.125c.163.081.317.175.473.266l.233.138c.039.023.078.045.116.07l.113.074.45.3.056.038.054.04.109.08.217.161.216.162.054.041.052.043.1.086.413.344c.034.029.069.057.1.087l.1.091.2.182c.131.121.263.242.391.367l.375.382.185.193c.031.033.063.063.092.1l.089.1c.119.133.236.267.353.4l.175.2c.03.033.057.067.085.1l.083.1c.11.139.221.277.33.417l.163.21c.028.034.054.07.079.106l.077.108c.1.145.205.289.306.434l.151.218c.025.036.051.072.075.109l.071.112c.189.3.374.6.549.908-.26-.242-.51-.49-.756-.74l-.092-.093-.095-.091-.189-.183-.374-.367c-.063-.06-.122-.125-.186-.183l-.191-.179c-.127-.119-.252-.24-.378-.36-.063-.059-.124-.121-.189-.179l-.193-.175c-.128-.116-.257-.232-.383-.35a25.9,25.9,0,0,0-3.243-2.521l-.106-.071c-.035-.024-.072-.044-.108-.067l-.218-.131-.217-.132c-.071-.046-.148-.083-.221-.125-.148-.081-.3-.165-.445-.244l-.453-.226c-.038-.02-.076-.036-.115-.053l-.116-.051-.231-.1c-.039-.017-.077-.035-.116-.051l-.117-.046-.235-.093-.118-.047c-.039-.015-.08-.027-.119-.041-.08-.027-.16-.053-.239-.082l-.119-.042c-.04-.013-.081-.024-.121-.036l-.242-.071c-.04-.011-.081-.024-.122-.035l-.122-.03-.246-.062c-.041-.011-.082-.019-.124-.027l-.124-.025c-.083-.015-.165-.036-.249-.05l-.25-.039c-.042-.006-.084-.014-.126-.019l-.126-.014c-.084-.009-.169-.02-.253-.028s-.169-.011-.255-.018a7.931,7.931,0,0,0-1.027.006c-.086.008-.172.013-.258.025l-.129.015-.129.019A4.316,4.316,0,0,0,772.864,849.758Z" transform="translate(-752.422 -841.031)" fill="#070707"/>
                  <path id="Path_64637" data-name="Path 64637" d="M799.336,837.157a4.6,4.6,0,0,1,.778-.233,7.637,7.637,0,0,1,.8-.128,9.339,9.339,0,0,1,1.635-.02,10.082,10.082,0,0,1,1.621.257c.067.016.134.031.2.048l.2.056c.132.037.264.074.394.119l.2.065c.065.023.13.042.194.067l.384.148c.064.024.127.052.189.08l.188.083.187.084.184.091c.122.062.245.122.365.187s.239.134.357.2.234.141.349.214l.172.11c.057.038.115.073.17.113.221.159.447.312.656.486.106.085.211.171.316.257s.2.18.3.272c.2.178.39.376.579.568.095.1.184.2.272.3s.176.2.262.308.165.213.246.321.159.217.235.329c-.114-.073-.225-.149-.335-.225l-.163-.115c-.055-.038-.107-.079-.163-.115-.111-.073-.22-.149-.329-.223-.055-.037-.108-.075-.162-.113s-.11-.073-.165-.109l-.328-.217c-.108-.074-.219-.143-.33-.212s-.22-.14-.329-.21-.225-.131-.335-.2a20.348,20.348,0,0,0-2.751-1.385,17.557,17.557,0,0,0-2.932-.9c-.5-.109-1.014-.191-1.532-.254A14,14,0,0,0,799.336,837.157Z" transform="translate(-770.889 -832.432)" fill="#070707"/>
                  <path id="Path_64638" data-name="Path 64638" d="M718.258,1089l-12.993,37.739,5.146,3.812,9.657-35.325Z" transform="translate(-705.265 -1008.404)" fill="#070707"/>
                  <path id="Path_64639" data-name="Path 64639" d="M965.364,1161.217l3.3,11.182,5.591-3.939s-7.052-11.881-7.433-23.571l-1.461,16.328" transform="translate(-886.709 -1047.39)" fill="#070707"/>
                  <path id="Path_64640" data-name="Path 64640" d="M1023.959,1048.77l13.977,25.255-.636,8.881-14.9-33.474Z" transform="translate(-926.498 -980.337)" fill="#070707"/>
                </g>
              </g>
            </g>
          </g>
        </g>
      </g>
    </g>
  </g>
</svg>
