<?xml version="1.0" encoding="UTF-8" standalone="no"?>
<svg
   xmlns:dc="http://purl.org/dc/elements/1.1/"
   xmlns:cc="http://creativecommons.org/ns#"
   xmlns:rdf="http://www.w3.org/1999/02/22-rdf-syntax-ns#"
   xmlns:svg="http://www.w3.org/2000/svg"
   xmlns="http://www.w3.org/2000/svg"
   xmlns:sodipodi="http://sodipodi.sourceforge.net/DTD/sodipodi-0.dtd"
   xmlns:inkscape="http://www.inkscape.org/namespaces/inkscape"
   width="129.957"
   height="129.957"
   viewBox="0 0 129.957 129.957"
   version="1.1"
   id="svg3853"
   sodipodi:docname="logoMark.svg"
   inkscape:version="0.92.5 (2060ec1f9f, 2020-04-08)">
  <metadata
     id="metadata3859">
    <rdf:RDF>
      <cc:Work
         rdf:about="">
        <dc:format>image/svg+xml</dc:format>
        <dc:type
           rdf:resource="http://purl.org/dc/dcmitype/StillImage" />
        <dc:title></dc:title>
      </cc:Work>
    </rdf:RDF>
  </metadata>
  <defs
     id="defs3857" />
  <sodipodi:namedview
     pagecolor="#ffffff"
     bordercolor="#666666"
     borderopacity="1"
     objecttolerance="10"
     gridtolerance="10"
     guidetolerance="10"
     inkscape:pageopacity="0"
     inkscape:pageshadow="2"
     inkscape:window-width="3368"
     inkscape:window-height="1376"
     id="namedview3855"
     showgrid="false"
     inkscape:zoom="5.2003926"
     inkscape:cx="84.668358"
     inkscape:cy="35.219764"
     inkscape:window-x="72"
     inkscape:window-y="315"
     inkscape:window-maximized="1"
     inkscape:current-layer="Ninja_Software_Badge_x_1000_Light" />
  <g
     id="Ninja_Software_Badge_x_1000_Light"
     data-name="Ninja Software Badge x 1000 Light"
     transform="translate(-161.048,-1491.17)">
    <g
       id="Group_17"
       data-name="Group 17"
       transform="translate(161.04987,1499.0871)">
      <path
         id="Path_381"
         data-name="Path 381"
         d="M 35.421,114.119 A 12.217,12.217 0 0 1 24.878,107.175 L 1.463,63.021 A 12.242,12.242 0 0 1 1.435,51.645 L 9.4,36.39 24.947,6.577 A 12.184,12.184 0 0 1 35.764,0.025 h 55.644 a 12.216,12.216 0 0 1 11.335,6.092 l 25.674,45.127 a 12.144,12.144 0 0 1 1.516,4.712 0.122,0.122 0 0 0 0,0.015 v 0 a 12.209,12.209 0 0 1 -1.543,7.359 l -23.515,40.97 -0.673,1.173 -1.418,2.472 a 12.222,12.222 0 0 1 -10.9,6.121 l -54.38,0.059 H 35.893 35.5 Z"
         transform="translate(-0.048,-0.002)"
         inkscape:connector-curvature="0"
         style="fill:#ffffff" />
      <g
         id="Group_13"
         data-name="Group 13"
         transform="translate(10.863,10.613)">
        <g
           id="Path_363"
           data-name="Path 363"
           transform="translate(0.007,0.001)">
          <path
             id="Path_366"
             data-name="Path 366"
             d="m 540.837,732.263 a 4.9735006,4.9735006 0 1 1 -0.005,-9.947 l 49.343,-0.053 18.025,-31.417 -89.291,0.013 a 4.973,4.973 0 0 1 -4.409,-7.275 l 21.815,-41.791 a 4.974,4.974 0 0 1 4.409,-2.672 h 52.291 a 4.9735,4.9735 0 0 1 0,9.947 h -49.281 l -16.622,31.842 89.672,-0.012 a 4.973,4.973 0 0 1 4.315,7.448 l -23.727,41.362 a 4.974,4.974 0 0 1 -4.309,2.5 l -52.22,0.057 z"
             transform="translate(-513.932,-639.122)"
             inkscape:connector-curvature="0"
             style="fill:#ffffff" />
        </g>
        <g
           id="Path_364"
           data-name="Path 364"
           transform="translate(0,0.003)">
          <path
             id="Path_367"
             data-name="Path 367"
             d="m 540.816,732.264 a 4.972,4.972 0 0 1 -4.4,-2.644 l -21.939,-41.373 a 4.973,4.973 0 0 1 -0.016,-4.63 L 536.27,641.8 a 4.973,4.973 0 0 1 8.618,-0.351 l 47.945,76.139 18.215,-31.728 -22.361,-39.3 a 4.9732431,4.9732431 0 0 1 8.645,-4.919 l 23.768,41.774 a 4.973,4.973 0 0 1 -0.01,4.935 l -23.746,41.363 a 4.973,4.973 0 0 1 -8.522,0.174 l -47.737,-75.807 -16.594,31.82 20.714,39.061 a 4.975,4.975 0 0 1 -4.389,7.3 z"
             transform="translate(-513.899,-639.127)"
             inkscape:connector-curvature="0"
             style="fill:#ffffff" />
        </g>
        <g
           id="Path_362"
           data-name="Path 362"
           transform="translate(0,0.003)"
           style="opacity:0.50100038">
          <path
             id="Path_369"
             data-name="Path 369"
             d="m 540.816,732.264 a 4.972,4.972 0 0 1 -4.4,-2.644 l -21.939,-41.373 a 4.973,4.973 0 0 1 -0.016,-4.63 L 536.27,641.8 a 4.973,4.973 0 0 1 8.618,-0.351 l 47.945,76.139 18.215,-31.728 -22.361,-39.3 a 4.9732431,4.9732431 0 0 1 8.645,-4.919 l 23.768,41.774 a 4.973,4.973 0 0 1 -0.01,4.935 l -23.746,41.363 a 4.973,4.973 0 0 1 -8.522,0.174 l -47.737,-75.807 -16.594,31.82 20.714,39.061 a 4.975,4.975 0 0 1 -4.389,7.3 z"
             transform="translate(-513.899,-639.127)"
             inkscape:connector-curvature="0"
             style="fill:#ffffff" />
        </g>
        <path
           id="Path_1079"
           data-name="Path 1079"
           d="m 6596.308,12294.459 a 4.971,4.971 0 0 1 -4.484,-2.816 l -21.849,-41.2 a 5.026,5.026 0 0 1 -0.01,-4.658 l 8.063,-15.447 13.735,-26.338 a 5,5 0 0 1 4.424,-2.678 h 52.291 c 0.113,0 0.225,0 0.336,0.01 a 4.966,4.966 0 0 1 4.012,2.5 l 23.767,41.773 a 4.97,4.97 0 0 1 -0.01,4.936 l -21.9,38.154 -1.84,3.207 a 4.967,4.967 0 0 1 -4.309,2.5 l -52.22,0.06 z m 2.993,-9.949 40.223,-0.04 -19.784,-31.418 h -37.121 z m 49.027,-4.727 15.339,-26.74 h -32.174 z m -65.742,-36.676 h 30.891 l -16.891,-26.822 -10.25,19.635 z m 42.645,0 h 38.493 l -18.11,-31.832 h -40.43 z"
           transform="translate(-6569.395,-12201.318)"
           inkscape:connector-curvature="0"
           style="fill:#1a1a1a" />
      </g>
    </g>
  </g>
</svg>
